<?xml version="1.0" encoding="utf-8"?>
<!-- Generator: Adobe Illustrator 24.0.2, SVG Export Plug-In . SVG Version: 6.00 Build 0)  -->
<svg version="1.1" id="Layer_1" xmlns="http://www.w3.org/2000/svg" xmlns:xlink="http://www.w3.org/1999/xlink" x="0px" y="0px"
	 viewBox="0 0 700 900" style="enable-background:new 0 0 700 900;" xml:space="preserve">
<style type="text/css">
	.st0{opacity:0.15;fill:none;stroke:#FFFFFF;stroke-miterlimit:10;}
</style>
<path class="st0" d="M700,892c-40.7,4.7-82.8,7-125.6,7c-25.9,0-52.5-0.9-78.9-2.6c-149.4-9.8-245.3-58-293.1-147.5
	c-41.5-77.5-40.8-174.1-40.1-259.2c0.4-56.9,0.8-110.7-11.8-149.8c-42.1-130-88.5-159-116.2-176.3C18.5,153.7,8,147.1,9,127
	c1-19.8,72.4-45.1,224.8-79.8c21.5-4.9,41.4-6.8,59.9-6.8c38.3,0,70.6,8.2,98.4,15.3c20.5,5.2,38.2,9.7,53.8,9.7v0.9h0.9v-0.9
	c42.8-0.1,54.6-5,80.4-15.5c21.5-8.8,54-22.1,123.6-39.9C665.4,6.3,682,3.2,700,0.9"/>
<path class="st0" d="M700,840.7c-56.5,6.4-115.5,7.8-175.9,4.3c-134-7.5-221.1-48.9-266.2-126.5c-39.3-67.6-41.4-153.2-43.3-228.8
	c-1.3-53.2-2.6-103.4-16.6-140.3C155.4,231.7,110.4,203,83.6,185.8c-15.7-10-25.2-16.1-24.5-34.2c0.4-19.4,75.8-50,197-79.9
	c20.4-5.1,40.3-7.6,60.9-7.6c31.6,0,58.4,5.9,82,11.1c18.3,4,34.1,7.5,48.6,7.5c45.4,0.1,57.5-3.8,90-14.4
	c22.1-7.2,52.5-17,108.4-30.9c15.8-3.9,34.1-7,54.1-9.2"/>
<path class="st0" d="M700,792.2c-47.3,5.2-96.5,6.5-147.5,4c-119.7-5.3-198.7-40.4-241.4-107.3c-37.3-58.4-42.2-133.6-46.5-199.9
	c-3.2-49-6.2-95.2-21.4-129.4c-42.8-104.2-85.8-132.3-111.5-149.1c-15.9-10.4-25.5-16.7-25.2-34.4c-0.2-20.9,71.8-55.6,171.2-82.5
	c21.1-5.9,41.8-8.8,63.4-8.8c25,0,46.7,3.9,65.9,7.3c15.6,2.8,29,5.2,41.7,5.2c51.4,0.4,60.8-2,113-15.4c19.5-5,43.9-11.3,78.6-19.5
	c17.1-4.1,37.3-7.1,59.7-9.1"/>
<path class="st0" d="M700,745.9c-27.7,2.9-56.1,4.4-85.3,4.4c-11.2,0-22.6-0.2-33.9-0.6c-106.3-3.2-177.7-32.4-218.3-89.3
	c-35.5-49.8-42.8-112.1-49.8-172.3c-5.2-44.3-10.1-86.2-26.4-117.3c-42.5-90.3-81.6-116.3-107.4-133.6c-16.9-11.3-27.1-18.1-27-36.7
	c-0.9-23.8,63.6-62.2,147-87.4c25.5-8.1,48.2-10.7,68.4-10.7c18.4,0,34.8,2.1,49.5,4c11.8,1.5,23,2.9,33.3,3.1l5.2,0.1
	c60.1,0.9,65,1,179.1-24.7c18.2-4.1,40.8-7.1,65.8-8.8"/>
<path class="st0" d="M700,697.4c-23.5,2.3-47.6,3.5-72.3,3.5c-6.1,0-12.3-0.1-18.5-0.2c-206.6-2.3-227.4-115-245.7-214.5
	c-7.3-39.6-14.2-77-32-105.2c-42.1-76.9-79.3-102.1-103.9-118.8c-17.5-11.8-28-19-28.3-37.2c-0.8-11.5,11.2-27.7,32.9-44.4
	c23.1-17.8,54.4-33.9,88.2-45.5c29.2-10.9,53.8-13.6,75.6-13.6c11.5,0,22.2,0.8,32.5,1.5c7.9,0.6,15.4,1.1,22.7,1.2
	c10.9,0.2,20.4,0.7,28.8,1c38.8,1.7,62.2,2.8,148.7-15.4c18.7-4,43.2-6.9,71.3-8.3"/>
<path class="st0" d="M700,649.1c-19.3,1.8-39.1,2.7-59.4,2.7c-1,0-2,0-2.9,0c-78.4,1-133.5-16.1-168.6-52.5
	c-31-32.1-42.8-74.7-54.3-115.9c-9.6-34.4-18.7-67-38-92.1c-41.2-63.5-76.4-87.5-99.7-103.5c-18.4-12.6-29.5-20.2-30.2-38.3
	c-2.4-24.5,37.8-69.2,95.2-92.4c35.4-16,62.9-18.6,88.2-18.6c6.3,0,12.5,0.2,18.6,0.3l3.5,0.1c14.8,0.5,27.3,1.7,39.3,2.9
	c32.3,3.2,62.7,6.2,131.5-7c19.8-3.8,46.4-6.6,76.8-7.4"/>
<path class="st0" d="M666.1,601.1c-64.5,3-111.2-8.3-142.8-34.6c-28.1-23.4-41.9-56.3-55.3-88.1c-11.6-27.6-23.5-56.1-44.7-78
	c-39.6-50-72.6-72.6-94.5-87.5c-20.4-13.9-31.6-21.6-32.6-38.9c-2.8-22.7,22.4-70.3,68.3-93.2c30.9-17.8,55.9-25.4,83.7-25.4
	c1.8,0,3.6,0,5.3,0.1c15.9,0.7,29.7,2.9,44.4,5.3c31.2,5.1,63.5,10.3,120,0.8c20.8-3.5,49.6-5.9,82-6.2"/>
<path class="st0" d="M694.4,552.3c-52.5,5.1-90.4-0.7-119.1-18.2c-25.5-15.6-40.4-38.3-56.3-62.4c-13.9-21.2-28.3-43.1-50.7-61.1
	c-36-36-65-55.3-86.2-69.4c-23.8-15.9-36.9-24.6-38.5-42.7c-3.2-21.4,8.6-73.3,42.7-96c22.8-18.4,42.1-32.5,65.7-32.5
	c0.9,0,1.8,0,2.8,0.1c15.9,0.9,31.3,4.4,47.7,8.2c29.9,6.8,63.7,14.5,109.9,8.2c18.2-2.5,50.1-5.2,87.6-4.9"/>
<path class="st0" d="M673.4,509.9c-53.2,0-78.3-22-107.3-47.5c-15.4-13.6-31.4-27.6-53.5-40.5c-28.6-21.3-51.9-35.8-70.7-47.3
	c-32-19.8-49.7-30.7-52.2-51.5c-4.1-23.3-3.3-78.3,17.3-100c1.2-1.7,2.4-3.4,3.7-5.1c12.2-17.2,24.8-35,43.5-35c0.6,0,1.2,0,1.9,0.1
	c15.4,1.1,32.6,6.2,50.9,11.5c29.6,8.7,63.1,18.5,99.7,15.1c14.6-1.4,51.1-4.4,93.4-3.5"/>
<path class="st0" d="M700,467.2c-39.4,4.8-66.7-5.7-105.9-21.8c15.4,3.9,33.5,6.3,54,7c2.3,0.1,4.6,0.1,6.9,0.1"/>
<path class="st0" d="M655.8,280c-27.4,4.3-53.3,8.3-65.8,4.8c-11-3.1-32.7-13.9-55.8-25.3c-29.7-14.7-60.4-29.9-74.5-32.2
	c-1.9-0.3-3.3,0.6-4.3,2.6c-4.8,9.5,2,43.7,16.8,59.3c18,19,54.1,83.3,60.3,107.6c3,11.8,10,22,20.8,30.4
	c-5.8-2.1-11.2-4.3-16.1-6.5c-0.6-0.3-1.3-0.6-1.9-0.9l-0.4-0.2c-5.3-2.6-10.4-5.2-15.3-7.6c-20.7-11.8-31.7-24.6-34.7-39.6
	c-3.1-13.4-12.1-38.9-20-61.6c-6.3-17.8-12.2-34.6-14.5-43.4c-2.8-7.4-4.5-17.7-4.5-27.6c-0.1-10.8,1.7-19.1,5.1-23.6
	c1.8-2.3,4-3.5,6.5-3.5c0.3,0,0.6,0,1,0.1c13.9,1.7,36.3,11.2,60,21.3c28.2,12,57.4,24.4,77.1,25.9c10.7,0.8,27.5-0.2,47-1.3
	c17.7-1,37.8-2.1,57.4-2.1"/>
<path class="st0" d="M667,425.4c-18.4,0-38-2.2-60-6.7c-17.7-4.7-33.2-9.4-46.7-14.2c-12-8.5-19.7-19.2-22.9-31.7
	c-6.2-24.4-7.6-22-25.8-41.1c-14.7-15.4-21.4-48.9-16.7-58.2c0.7-1.4,1.6-2.1,2.8-2.1c0.2,0,0.4,0,0.6,0c14,2.3,44.6,17.4,74.3,32.1
	c23.1,11.4,44.9,22.2,56,25.3c12.7,3.6,38.6-0.5,66.1-4.7"/>
<path class="st0" d="M697.1,447c-15.9,3.6-32.4,5.1-48.9,4.5c-23.9-0.9-44.4-3.9-61.3-9.1c-6.6-2.7-13.5-5.5-20.8-8.4
	c-1.4-0.7-2.7-1.4-3.9-2.2c-1-0.6-2-1.2-2.9-1.8c12.7,4.5,27.2,8.8,43.5,13.1c22,4.5,41.7,6.7,60.2,6.7"/>
</svg>
