<?xml version="1.0" encoding="utf-8"?>
<!-- Generator: Adobe Illustrator 24.0.2, SVG Export Plug-In . SVG Version: 6.00 Build 0)  -->
<svg version="1.1" id="Layer_1" xmlns="http://www.w3.org/2000/svg" xmlns:xlink="http://www.w3.org/1999/xlink" x="0px" y="0px"
	 viewBox="0 0 400 400" style="enable-background:new 0 0 400 400;" xml:space="preserve">
<style type="text/css">
	.st0{fill:none;stroke:#FFFFFF;stroke-width:0.2;stroke-miterlimit:10;}
</style>
<path class="st0" d="M-0.5,386c59.4-21.8,122.6-47.7,180-74C308,253.2,385.7,202.9,387.3,177.6c0.3-4.7-1.9-8.5-6.9-11.6
	c-33.4-21-69.1-31.8-100.5-41.3c-52.6-15.9-98.1-29.7-112.3-84.3c-4.4-16.8-12.6-27.6-25.2-33.2C115.2-4.6,67.8,8.7-0.5,39.7"/>
<path class="st0" d="M-0.5,376.9c48.7-18.3,99.6-39.5,146.9-61.3c119.7-55.1,192.3-102.5,194.2-127c0.4-4.6-1.7-8.4-6.4-11.4
	C303.9,158,271.6,148,243,139.1c-48.1-14.9-89.6-27.8-102.7-77.9c-4.1-15.8-12-26.1-23.9-31.3C93.1,19.8,53.7,29.3-0.5,52.5"/>
<path class="st0" d="M-0.5,367.7c10.1-3.9,20.4-8,30.8-12.3c60.2-24.6,118.1-51.5,163-75.9c50.5-27.4,83.5-50.9,95.5-67.9
	c7.1-10.1,6.9-17.7-0.7-23.1c-27.2-17.5-56.3-26.8-82-34.9C162.6,139.7,125,127.7,113,82c-3.9-14.9-11.3-24.5-22.7-29.4
	C71.4,44.4,42,49.2-0.5,65.8"/>
<path class="st0" d="M11,353.4c90.1-37.2,204.6-93.7,231-130.7c7.2-10,7.1-17.5-0.1-23c-24.2-15.7-50-24.2-72.8-31.8
	c-38.8-12.8-72.4-23.9-83.4-64.8l-0.1-0.4c-3.7-14-10.7-23-21.4-27.6c-14.7-6.3-36.2-4.2-64.8,5"/>
<path class="st0" d="M-0.5,348.2c43.9-18.7,85.9-39,118.9-57.5c39.5-22.2,66.1-41.8,76.8-56.6c7.2-9.9,7.4-17.4,0.6-23.1
	c-21.1-14-43.7-21.7-63.6-28.6c-34.4-11.8-64.1-22.1-73.8-58.9c-3.5-13.1-10.1-21.5-20.3-25.9c-9.7-4.2-22.7-4.4-38.6-1.2"/>
<path class="st0" d="M-0.5,337.6c63-28.7,128.8-64.9,148.8-92.1c7.2-9.9,7.7-17.5,1.4-23.3c-18.1-12.2-37.4-19.2-54.4-25.4
	c-29.8-10.8-55.6-20.2-64.2-52.5c-3.3-12.2-9.6-20.2-19.2-24.2"/>
<path class="st0" d="M-0.5,326c58.6-29.3,90.8-54,101.8-68.9c7.2-9.8,8-17.7,2.2-23.7c-15-10.5-30.3-16.4-45.2-22.2
	C33,201.4,11.2,192.9,3.7,165"/>
<path class="st0" d="M-0.5,312.1c24.6-14.6,44.9-29.7,54.8-43c7.4-9.9,8.4-18.1,3.2-24.3l-0.1-0.1c-11.9-8.7-24.2-13.9-36-19"/>
</svg>
