<?xml version="1.0" encoding="utf-8"?>
<!-- Generator: Adobe Illustrator 24.0.2, SVG Export Plug-In . SVG Version: 6.00 Build 0)  -->
<svg version="1.1" id="Layer_1" xmlns="http://www.w3.org/2000/svg" xmlns:xlink="http://www.w3.org/1999/xlink" x="0px" y="0px"
	 viewBox="0 0 64 64" style="enable-background:new 0 0 64 64;" xml:space="preserve">
<style type="text/css">
	.st0{fill:#FFFFFF;}
	.st1{fill:none;stroke:#FFFFFF;stroke-miterlimit:10;}
</style>
<g>
	<path class="st0" d="M35.3,28.5l-4,16.3c-0.3,1.3-0.4,2.2-0.4,2.6c0,0.7,0.3,1,1,1c0.8,0,1.7-0.6,2.8-1.8c1.1-1.2,2.1-2.9,3.1-5.2
		h1.2c-2.3,6-5.5,9-9.5,9c-2.3,0-3.5-1.2-3.5-3.6c0-0.7,0.1-1.5,0.3-2.4s0.4-1.5,0.5-2l2.9-12.1h-5l0.3-1.3h3.1
		C30.7,29,33.1,28.8,35.3,28.5z M32.2,17.5c0-0.8,0.3-1.5,0.9-2c0.6-0.6,1.3-0.9,2-0.9c0.8,0,1.5,0.3,2.1,0.8
		c0.6,0.6,0.9,1.3,0.9,2.1c0,0.8-0.3,1.5-0.9,2.1c-0.6,0.6-1.3,0.9-2.1,0.9c-0.8,0-1.5-0.3-2-0.9C32.5,19,32.2,18.3,32.2,17.5z"/>
</g>
<circle class="st1" cx="32.2" cy="32.5" r="30.8"/>
</svg>
