<?xml version="1.0" encoding="utf-8"?>
<!-- Generator: Adobe Illustrator 24.0.2, SVG Export Plug-In . SVG Version: 6.00 Build 0)  -->
<svg version="1.0" id="Layer_1" xmlns="http://www.w3.org/2000/svg" xmlns:xlink="http://www.w3.org/1999/xlink" x="0px" y="0px"
	 viewBox="0 0 214 62" style="enable-background:new 0 0 214 62;" xml:space="preserve">
<style type="text/css">
	.st0{fill:#FB743A;}
	.st1{fill:none;stroke:#F8712F;stroke-width:2;stroke-miterlimit:10;}
	.st2{fill:none;stroke:#000000;stroke-width:2;stroke-miterlimit:10;}
	.st3{fill:url(#SVGID_1_);}
	.st4{fill:url(#SVGID_2_);}
	.st5{fill:url(#SVGID_3_);}
	.st6{fill:url(#SVGID_4_);}
	.st7{fill:url(#SVGID_5_);}
	.st8{fill:url(#SVGID_6_);}
</style>
<path class="st0" d="M28.8,27.6h13.2c-0.4-6.2-5.7-11.1-12.1-11.1c-6.7,0-12.2,5.3-12.2,11.8c0,6.2,4.9,11.2,11.1,11.8V27.6z"/>
<path class="st1" d="M28.8,9.4c-10.2,0.6-18.3,8.7-18.3,18.8s8.1,18.2,18.3,18.8"/>
<path class="st2" d="M27.8,28.7"/>
<path class="st1" d="M1.9,28.7c1.2,14,12.6,25.1,27,26.9"/>
<g>
	<linearGradient id="SVGID_1_" gradientUnits="userSpaceOnUse" x1="53.5308" y1="31.4275" x2="212.8738" y2="31.4275">
		<stop  offset="0" style="stop-color:#F2422A"/>
		<stop  offset="1" style="stop-color:#F7A93C"/>
	</linearGradient>
	<polygon class="st3" points="63.4,29.8 57.8,17.6 51.2,17.6 51.2,45.3 57.8,45.3 57.8,32 63.4,43 70,34.2 70,45.3 75.5,45.3 
		75.5,17.6 70,17.6 	"/>
	<linearGradient id="SVGID_2_" gradientUnits="userSpaceOnUse" x1="53.5308" y1="31.9808" x2="212.8541" y2="31.9808">
		<stop  offset="0" style="stop-color:#F2422A"/>
		<stop  offset="1" style="stop-color:#F7A93C"/>
	</linearGradient>
	<path class="st4" d="M100.1,17.6H86.4c-1.7,0-3.1,1.4-3.1,3.1v22.6c0,1.7,1.4,3.1,3.1,3.1h13.7c1.7,0,3.1-1.4,3.1-3.1V20.7
		C103.2,19,101.8,17.6,100.1,17.6z M97.7,39.7h-8.9V23.1h8.9V39.7z"/>
	<linearGradient id="SVGID_3_" gradientUnits="userSpaceOnUse" x1="53.5308" y1="31.4275" x2="212.8738" y2="31.4275">
		<stop  offset="0" style="stop-color:#F2422A"/>
		<stop  offset="1" style="stop-color:#F7A93C"/>
	</linearGradient>
	<path class="st5" d="M126.8,16.5h-10.6c-2.9,0-5.2,2.3-5.2,5.2v19.5c0,2.9,2.3,5.2,5.2,5.2h10.6c2.9,0,5.2-2.3,5.2-5.2v-4.8h-6.6
		v3.3h-8.9V23.1h8.9v2.2h6.6v-3.7C132,18.8,129.6,16.5,126.8,16.5z"/>
	<linearGradient id="SVGID_4_" gradientUnits="userSpaceOnUse" x1="53.5308" y1="30.8743" x2="212.8738" y2="30.8743">
		<stop  offset="0" style="stop-color:#F2422A"/>
		<stop  offset="1" style="stop-color:#F7A93C"/>
	</linearGradient>
	<path class="st6" d="M145.2,16.5l-7.7,28.8h6.6l1.1-3.3h7.7l1.1,3.3h6.6l-8.9-28.8H145.2z M146.3,35.3l1.1-5.5h2.2l1.1,5.5H146.3z"
		/>
	<linearGradient id="SVGID_5_" gradientUnits="userSpaceOnUse" x1="53.5308" y1="30.884" x2="212.8738" y2="30.884">
		<stop  offset="0" style="stop-color:#F2422A"/>
		<stop  offset="1" style="stop-color:#F7A93C"/>
	</linearGradient>
	<path class="st7" d="M182.9,15.7l-16.5-0.3c-0.7,0-1.2,0.5-1.2,1.2v29.8h6.6v-7.7h4.4l4.4,7.7h5.5l-3.3-7.7v-1.4
		c1.9-0.7,3.3-2.5,3.3-4.6V20.3C186.2,18.2,184.8,16.3,182.9,15.7z M179.5,30c0,1.1-0.9,2-2,2h-3.8c-1.1,0-2-0.9-2-2v-4.9
		c0-1.1,0.9-2,2-2h3.8c1.1,0,2,0.9,2,2V30z"/>
	<linearGradient id="SVGID_6_" gradientUnits="userSpaceOnUse" x1="53.5308" y1="31.4275" x2="212.8738" y2="31.4275">
		<stop  offset="0" style="stop-color:#F2422A"/>
		<stop  offset="1" style="stop-color:#F7A93C"/>
	</linearGradient>
	<polygon class="st8" points="194.2,17 194.2,21.5 200.3,21.5 200.3,45.8 206.9,45.8 206.9,21.5 213,21.5 213,17 	"/>
</g>
</svg>
