<?xml version="1.0" encoding="utf-8"?>
<!-- Generator: Adobe Illustrator 24.0.2, SVG Export Plug-In . SVG Version: 6.00 Build 0)  -->
<svg version="1.0" id="Layer_1" xmlns="http://www.w3.org/2000/svg" xmlns:xlink="http://www.w3.org/1999/xlink" x="0px" y="0px"
	 viewBox="0 0 560 235" style="enable-background:new 0 0 560 235;" xml:space="preserve">
<style type="text/css">
	.st0{fill:url(#SVGID_1_);}
	.st1{fill:url(#SVGID_2_);}
	.st2{fill:url(#SVGID_3_);}
	.st3{fill:url(#SVGID_4_);}
	.st4{fill:url(#SVGID_5_);}
	.st5{fill:url(#SVGID_6_);}
	.st6{fill:url(#SVGID_7_);}
	.st7{fill:url(#SVGID_8_);}
	.st8{fill:url(#SVGID_9_);}
	.st9{fill:url(#SVGID_10_);}
	.st10{fill:url(#SVGID_11_);}
	.st11{fill:url(#SVGID_12_);}
	.st12{fill:url(#SVGID_13_);}
	.st13{fill:url(#SVGID_14_);}
	.st14{fill:url(#SVGID_15_);}
	.st15{fill:url(#SVGID_16_);}
</style>
<g>
	<linearGradient id="SVGID_1_" gradientUnits="userSpaceOnUse" x1="7.767504e-03" y1="116.6579" x2="562.4639" y2="116.6579">
		<stop  offset="0" style="stop-color:#F3CBA2"/>
		<stop  offset="0.1507" style="stop-color:#F3DEBB"/>
		<stop  offset="0.3859" style="stop-color:#D5A983"/>
		<stop  offset="0.6326" style="stop-color:#A57B5D"/>
		<stop  offset="0.8567" style="stop-color:#D5A983"/>
		<stop  offset="0.9987" style="stop-color:#D5A983"/>
	</linearGradient>
	<path class="st0" d="M562.5,233.3C539.6,131.2,491.1,51.9,428.3,17.8C406.5,6,383.6,0,360.2,0c-25.1,0-50.4,6.9-75.4,20.4
		c-75.5,41-182,85.3-284.9,118.4l0.3,0.9c80.4-25.9,163-58.6,231.3-91.2C163.2,81.3,80.5,114,0,139.9l0.3,0.9
		c103-33.1,209.7-77.5,285.5-118.6C310.5,8.8,335.5,2,360.2,2c23,0,45.6,5.9,67.1,17.6C489.6,53.3,537.6,132,560.4,233.3"/>
	<linearGradient id="SVGID_2_" gradientUnits="userSpaceOnUse" x1="303.12" y1="9.8376" x2="427.787" y2="9.8376">
		<stop  offset="0" style="stop-color:#F3CBA2"/>
		<stop  offset="0.1507" style="stop-color:#F3DEBB"/>
		<stop  offset="0.3859" style="stop-color:#D5A983"/>
		<stop  offset="0.6326" style="stop-color:#A57B5D"/>
		<stop  offset="0.8567" style="stop-color:#D5A983"/>
		<stop  offset="0.9987" style="stop-color:#D5A983"/>
	</linearGradient>
	<path class="st1" d="M360.2,1c-19,0-38.1,4-57.1,11.8C322.1,5,341.3,1,360.2,1c23.2,0,45.9,5.9,67.6,17.7
		C406.2,6.9,383.4,1,360.2,1z"/>
	<linearGradient id="SVGID_3_" gradientUnits="userSpaceOnUse" x1="422.9209" y1="169.1574" x2="486.9478" y2="169.1574">
		<stop  offset="0" style="stop-color:#F3CBA2"/>
		<stop  offset="0.1507" style="stop-color:#F3DEBB"/>
		<stop  offset="0.3859" style="stop-color:#D5A983"/>
		<stop  offset="0.6326" style="stop-color:#A57B5D"/>
		<stop  offset="0.8567" style="stop-color:#D5A983"/>
		<stop  offset="0.9987" style="stop-color:#D5A983"/>
	</linearGradient>
	<path class="st2" d="M486.9,233.3c-14.6-51.4-36.6-95.4-64-128.3C450.4,137.9,472.4,181.9,486.9,233.3"/>
	<linearGradient id="SVGID_4_" gradientUnits="userSpaceOnUse" x1="4.369221e-03" y1="137.1658" x2="487.9759" y2="137.1658">
		<stop  offset="0" style="stop-color:#F3CBA2"/>
		<stop  offset="0.1507" style="stop-color:#F3DEBB"/>
		<stop  offset="0.3859" style="stop-color:#D5A983"/>
		<stop  offset="0.6326" style="stop-color:#A57B5D"/>
		<stop  offset="0.8567" style="stop-color:#D5A983"/>
		<stop  offset="0.9987" style="stop-color:#D5A983"/>
	</linearGradient>
	<path class="st3" d="M488,233.3C464.8,151.4,422.8,88,369.8,58.6c-42.5-23.5-88.9-23.4-134.3,0.2C170.9,92.4,87.3,126.8,0,155.5
		l0.3,0.9c87.3-28.7,171-63.1,235.6-96.8c0.9-0.4,1.7-0.9,2.6-1.3c0.4-0.2,0.7-0.4,1.1-0.6c0.6-0.3,1.2-0.6,1.8-0.9
		c0.6-0.3,1.2-0.6,1.9-0.9c0.6-0.3,1.2-0.5,1.8-0.8c0.6-0.3,1.3-0.6,1.9-0.9c0.6-0.3,1.2-0.5,1.8-0.7c0.7-0.3,1.3-0.6,2-0.8
		c0.6-0.2,1.2-0.5,1.8-0.7c0.6-0.3,1.3-0.5,1.9-0.8c0.6-0.2,1.2-0.4,1.8-0.6c0.7-0.2,1.3-0.5,2-0.7c0.6-0.2,1.2-0.4,1.7-0.6
		c0.7-0.2,1.3-0.5,2-0.7c0.6-0.2,1.2-0.4,1.7-0.5c0.7-0.2,1.3-0.4,2-0.6c0.6-0.2,1.2-0.3,1.8-0.5c0.7-0.2,1.3-0.4,2-0.5
		c0.6-0.2,1.2-0.3,1.8-0.4c0.7-0.2,1.3-0.3,2-0.5c0.6-0.1,1.2-0.3,1.8-0.4c0.7-0.1,1.3-0.3,2-0.4c0.6-0.1,1.1-0.2,1.7-0.3
		c0.7-0.1,1.4-0.3,2-0.4c0.5-0.1,1-0.2,1.5-0.3c0.7-0.1,1.4-0.2,2.2-0.4c0.6-0.1,1.1-0.2,1.7-0.2c0.7-0.1,1.3-0.2,2-0.3
		c0.6-0.1,1.1-0.1,1.7-0.2c0.7-0.1,1.3-0.2,2-0.2c1.2-0.1,2.5-0.2,3.7-0.3c-1.2,0.1-2.5,0.2-3.7,0.3c-0.7,0.1-1.3,0.1-2,0.2
		c-0.6,0.1-1.1,0.1-1.7,0.2c-0.7,0.1-1.3,0.2-2,0.3c-0.6,0.1-1.1,0.1-1.7,0.2c-0.7,0.1-1.4,0.2-2.2,0.4c-0.5,0.1-1,0.2-1.5,0.3
		c-0.7,0.1-1.4,0.3-2,0.4c-0.6,0.1-1.1,0.2-1.7,0.3c-0.7,0.1-1.3,0.3-2,0.4c-0.6,0.1-1.2,0.3-1.8,0.4c-0.7,0.2-1.3,0.3-2,0.5
		c-0.6,0.1-1.2,0.3-1.8,0.4c-0.7,0.2-1.3,0.4-2,0.5c-0.6,0.2-1.2,0.3-1.8,0.5c-0.7,0.2-1.3,0.4-2,0.6c-0.6,0.2-1.2,0.3-1.7,0.5
		c-0.7,0.2-1.3,0.4-2,0.7c-0.6,0.2-1.2,0.4-1.7,0.6c-0.7,0.2-1.3,0.5-2,0.7c-0.6,0.2-1.2,0.4-1.8,0.6c-0.6,0.2-1.3,0.5-1.9,0.8
		c-0.6,0.2-1.2,0.5-1.8,0.7c-0.7,0.3-1.3,0.5-2,0.8c-0.6,0.2-1.2,0.5-1.8,0.7c-0.6,0.3-1.3,0.6-1.9,0.9c-0.6,0.3-1.2,0.5-1.8,0.8
		c-0.6,0.3-1.2,0.6-1.9,0.9c-0.6,0.3-1.2,0.6-1.8,0.9c-0.4,0.2-0.7,0.4-1.1,0.6c-0.9,0.4-1.7,0.9-2.6,1.3
		C171.2,93.4,87.4,127.8,0,156.5l0.3,0.9c87.5-28.8,171.3-63.2,236.1-96.9C258.7,48.9,281.5,43,303.9,43c22.3,0,44.1,5.8,64.9,17.3
		c52.5,29,94,91.8,117.1,173"/>
	<linearGradient id="SVGID_5_" gradientUnits="userSpaceOnUse" x1="303.8799" y1="42.0236" x2="304.4308" y2="42.0236">
		<stop  offset="0" style="stop-color:#F3CBA2"/>
		<stop  offset="0.1507" style="stop-color:#F3DEBB"/>
		<stop  offset="0.3859" style="stop-color:#D5A983"/>
		<stop  offset="0.6326" style="stop-color:#A57B5D"/>
		<stop  offset="0.8567" style="stop-color:#D5A983"/>
		<stop  offset="0.9987" style="stop-color:#D5A983"/>
	</linearGradient>
	<path class="st4" d="M303.9,42C303.9,42,303.9,42,303.9,42c0.2,0,0.4,0,0.6,0C304.2,42,304.1,42,303.9,42z"/>
	<linearGradient id="SVGID_6_" gradientUnits="userSpaceOnUse" x1="365.34" y1="77.2606" x2="416.0697" y2="77.2606">
		<stop  offset="0" style="stop-color:#F3CBA2"/>
		<stop  offset="0.1507" style="stop-color:#F3DEBB"/>
		<stop  offset="0.3859" style="stop-color:#D5A983"/>
		<stop  offset="0.6326" style="stop-color:#A57B5D"/>
		<stop  offset="0.8567" style="stop-color:#D5A983"/>
		<stop  offset="0.9987" style="stop-color:#D5A983"/>
	</linearGradient>
	<path class="st5" d="M369.3,59.5c-1.3-0.7-2.6-1.4-4-2.1C366.7,58,368,58.7,369.3,59.5c16.8,9.3,32.5,22,46.8,37.7
		C401.8,81.5,386.1,68.8,369.3,59.5z"/>
	<linearGradient id="SVGID_7_" gradientUnits="userSpaceOnUse" x1="1.941876e-03" y1="160.4757" x2="405.6058" y2="160.4757">
		<stop  offset="0" style="stop-color:#F3CBA2"/>
		<stop  offset="0.1507" style="stop-color:#F3DEBB"/>
		<stop  offset="0.3859" style="stop-color:#D5A983"/>
		<stop  offset="0.6326" style="stop-color:#A57B5D"/>
		<stop  offset="0.8567" style="stop-color:#D5A983"/>
		<stop  offset="0.9987" style="stop-color:#D5A983"/>
	</linearGradient>
	<path class="st6" d="M405.6,233.3c-22-59.6-55.8-105.6-97-129c-19.5-11.1-40.1-16.7-61.1-16.7c-19.6,0-39.4,4.9-58.9,14.5
		C137.7,127.3,69,155,0,178.1l0.3,0.9c69-23.2,137.8-50.9,188.8-76c19.3-9.5,39-14.4,58.4-14.4c20.9,0,41.2,5.6,60.6,16.5
		c40.9,23.2,74.5,68.9,96.4,128.1"/>
	<linearGradient id="SVGID_8_" gradientUnits="userSpaceOnUse" x1="1.941876e-03" y1="160.9735" x2="404.5495" y2="160.9735">
		<stop  offset="0" style="stop-color:#F3CBA2"/>
		<stop  offset="0.1507" style="stop-color:#F3DEBB"/>
		<stop  offset="0.3859" style="stop-color:#D5A983"/>
		<stop  offset="0.6326" style="stop-color:#A57B5D"/>
		<stop  offset="0.8567" style="stop-color:#D5A983"/>
		<stop  offset="0.9987" style="stop-color:#D5A983"/>
	</linearGradient>
	<path class="st7" d="M404.5,233.3c-21.9-59.2-55.5-104.9-96.4-128.1c-19.4-11-39.7-16.5-60.6-16.5c-19.4,0-39.1,4.8-58.4,14.4
		c-51,25.2-119.8,52.9-188.8,76l0,0c-0.1,0-0.2,0.1-0.3,0.1l0.3,0.9c69.2-23.2,138.1-51,189.2-76.2c19.2-9.5,38.7-14.3,58-14.3
		c20.7,0,40.9,5.5,60.1,16.4c40.7,23.1,74.1,68.4,95.9,127.3"/>
	<linearGradient id="SVGID_9_" gradientUnits="userSpaceOnUse" x1="252.3676" y1="190.6677" x2="324.4352" y2="190.6677">
		<stop  offset="0" style="stop-color:#F3CBA2"/>
		<stop  offset="0.1507" style="stop-color:#F3DEBB"/>
		<stop  offset="0.3859" style="stop-color:#D5A983"/>
		<stop  offset="0.6326" style="stop-color:#A57B5D"/>
		<stop  offset="0.8567" style="stop-color:#D5A983"/>
		<stop  offset="0.9987" style="stop-color:#D5A983"/>
	</linearGradient>
	<path class="st8" d="M324.4,233.3c-18.7-37.9-43.3-67.6-72.1-85.3C281.1,165.8,305.7,195.5,324.4,233.3"/>
	<linearGradient id="SVGID_10_" gradientUnits="userSpaceOnUse" x1="0" y1="181.109" x2="325.5385" y2="181.109">
		<stop  offset="0" style="stop-color:#F3CBA2"/>
		<stop  offset="0.1507" style="stop-color:#F3DEBB"/>
		<stop  offset="0.3859" style="stop-color:#D5A983"/>
		<stop  offset="0.6326" style="stop-color:#A57B5D"/>
		<stop  offset="0.8567" style="stop-color:#D5A983"/>
		<stop  offset="0.9987" style="stop-color:#D5A983"/>
	</linearGradient>
	<path class="st9" d="M325.5,233.3c-19.4-39.5-45.3-70.2-75.5-87.8c-34.8-20.4-73-22-110.5-4.7c-39.8,18.4-88,37.3-139.5,54.8
		l0.3,0.9c2.1-0.7,4.2-1.4,6.3-2.2c-2.1,0.7-4.2,1.4-6.3,2.2l0,0c-0.1,0-0.2,0.1-0.3,0.1l0.3,0.9C52,180,100.5,161,140.4,142.6
		c16.8-7.7,33.9-11.7,50.7-11.7c20,0,39.5,5.5,58,16.3c29.7,17.3,55.1,47.4,74.3,86.1"/>
	<linearGradient id="SVGID_11_" gradientUnits="userSpaceOnUse" x1="172.68" y1="130.9205" x2="180.7411" y2="130.9205">
		<stop  offset="0" style="stop-color:#F3CBA2"/>
		<stop  offset="0.1507" style="stop-color:#F3DEBB"/>
		<stop  offset="0.3859" style="stop-color:#D5A983"/>
		<stop  offset="0.6326" style="stop-color:#A57B5D"/>
		<stop  offset="0.8567" style="stop-color:#D5A983"/>
		<stop  offset="0.9987" style="stop-color:#D5A983"/>
	</linearGradient>
	<path class="st10" d="M172.7,131.4c2.7-0.4,5.4-0.8,8.1-1C178.1,130.6,175.4,131,172.7,131.4z"/>
	<linearGradient id="SVGID_12_" gradientUnits="userSpaceOnUse" x1="190.1141" y1="129.9118" x2="191.5047" y2="129.9118">
		<stop  offset="0" style="stop-color:#F3CBA2"/>
		<stop  offset="0.1507" style="stop-color:#F3DEBB"/>
		<stop  offset="0.3859" style="stop-color:#D5A983"/>
		<stop  offset="0.6326" style="stop-color:#A57B5D"/>
		<stop  offset="0.8567" style="stop-color:#D5A983"/>
		<stop  offset="0.9987" style="stop-color:#D5A983"/>
	</linearGradient>
	<path class="st11" d="M190.1,129.9c0.3,0,0.6,0,1,0c0.1,0,0.3,0,0.4,0C191,129.9,190.6,129.9,190.1,129.9z"/>
	<linearGradient id="SVGID_13_" gradientUnits="userSpaceOnUse" x1="199.9229" y1="216.3905" x2="232.7404" y2="216.3905">
		<stop  offset="0" style="stop-color:#F3CBA2"/>
		<stop  offset="0.1507" style="stop-color:#F3DEBB"/>
		<stop  offset="0.3859" style="stop-color:#D5A983"/>
		<stop  offset="0.6326" style="stop-color:#A57B5D"/>
		<stop  offset="0.8567" style="stop-color:#D5A983"/>
		<stop  offset="0.9987" style="stop-color:#D5A983"/>
	</linearGradient>
	<path class="st12" d="M232.7,233.3c-9.9-13.4-20.9-24.8-32.8-33.9C211.8,208.5,222.8,219.9,232.7,233.3"/>
	<linearGradient id="SVGID_14_" gradientUnits="userSpaceOnUse" x1="92.4687" y1="204.1569" x2="233.9732" y2="204.1569">
		<stop  offset="0" style="stop-color:#F3CBA2"/>
		<stop  offset="0.1507" style="stop-color:#F3DEBB"/>
		<stop  offset="0.3859" style="stop-color:#D5A983"/>
		<stop  offset="0.6326" style="stop-color:#A57B5D"/>
		<stop  offset="0.8567" style="stop-color:#D5A983"/>
		<stop  offset="0.9987" style="stop-color:#D5A983"/>
	</linearGradient>
	<path class="st13" d="M234,233.3c-13.2-17.9-28.3-32.4-44.9-42.4c-17.4-10.5-35.7-15.9-54.6-15.9c-14,0-28.1,3-42,8.8l0.4,0.9
		c13.8-5.8,27.8-8.7,41.7-8.7c15.3,0,30.3,3.6,44.7,10.6c-14.4-7-29.4-10.6-44.7-10.6c-13.8,0-27.9,2.9-41.7,8.7l0.4,0.9
		c13.7-5.7,27.6-8.7,41.3-8.7c18.5,0,36.5,5.2,53.6,15.6c16,9.7,30.6,23.6,43.4,40.7"/>
	<linearGradient id="SVGID_15_" gradientUnits="userSpaceOnUse" x1="43.6592" y1="224.8597" x2="130.5873" y2="224.8597">
		<stop  offset="0" style="stop-color:#F3CBA2"/>
		<stop  offset="0.1507" style="stop-color:#F3DEBB"/>
		<stop  offset="0.3859" style="stop-color:#D5A983"/>
		<stop  offset="0.6326" style="stop-color:#A57B5D"/>
		<stop  offset="0.8567" style="stop-color:#D5A983"/>
		<stop  offset="0.9987" style="stop-color:#D5A983"/>
	</linearGradient>
	<path class="st14" d="M130.6,232.5c-27.2-17.3-57.3-20.7-86.9-9.7l0.3,0.9c11.3-4.2,22.6-6.2,33.8-6.2v0c0.2,0,0.4,0,0.6,0
		c-0.2,0-0.4,0-0.6,0v1c17.4,0,34.4,5,50.4,14.9"/>
	<linearGradient id="SVGID_16_" gradientUnits="userSpaceOnUse" x1="99.4586" y1="220.9655" x2="106.0658" y2="220.9655">
		<stop  offset="0" style="stop-color:#F3CBA2"/>
		<stop  offset="0.1507" style="stop-color:#F3DEBB"/>
		<stop  offset="0.3859" style="stop-color:#D5A983"/>
		<stop  offset="0.6326" style="stop-color:#A57B5D"/>
		<stop  offset="0.8567" style="stop-color:#D5A983"/>
		<stop  offset="0.9987" style="stop-color:#D5A983"/>
	</linearGradient>
	<path class="st15" d="M99.5,220c2.2,0.5,4.4,1.2,6.6,1.9C103.9,221.2,101.7,220.6,99.5,220z"/>
</g>
</svg>
