<?xml version="1.0" encoding="utf-8"?>
<!-- Generator: Adobe Illustrator 24.0.2, SVG Export Plug-In . SVG Version: 6.00 Build 0)  -->
<svg version="1.0" id="Layer_1" xmlns="http://www.w3.org/2000/svg" xmlns:xlink="http://www.w3.org/1999/xlink" x="0px" y="0px"
	 viewBox="0 0 700 900" style="enable-background:new 0 0 700 900;" xml:space="preserve">
<style type="text/css">
	.st0{fill:none;stroke:url(#SVGID_1_);stroke-miterlimit:10;}
	.st1{fill:none;stroke:url(#SVGID_2_);stroke-miterlimit:10;}
	.st2{fill:none;stroke:url(#SVGID_3_);stroke-miterlimit:10;}
	.st3{fill:none;stroke:url(#SVGID_4_);stroke-miterlimit:10;}
	.st4{fill:none;stroke:url(#SVGID_5_);stroke-miterlimit:10;}
	.st5{fill:none;stroke:url(#SVGID_6_);stroke-miterlimit:10;}
	.st6{fill:none;stroke:url(#SVGID_7_);stroke-miterlimit:10;}
	.st7{fill:none;stroke:url(#SVGID_8_);stroke-miterlimit:10;}
	.st8{fill:none;stroke:url(#SVGID_9_);stroke-miterlimit:10;}
	.st9{fill:none;stroke:url(#SVGID_10_);stroke-miterlimit:10;}
	.st10{fill:none;stroke:url(#SVGID_11_);stroke-miterlimit:10;}
	.st11{fill:none;stroke:url(#SVGID_12_);stroke-miterlimit:10;}
	.st12{fill:none;stroke:url(#SVGID_13_);stroke-miterlimit:10;}
	.st13{fill:none;stroke:url(#SVGID_14_);stroke-miterlimit:10;}
	.st14{fill:none;stroke:url(#SVGID_15_);stroke-miterlimit:10;}
	.st15{fill:none;stroke:url(#SVGID_16_);stroke-miterlimit:10;}
	.st16{fill:none;stroke:url(#SVGID_17_);stroke-miterlimit:10;}
	.st17{fill:none;stroke:url(#SVGID_18_);stroke-miterlimit:10;}
	.st18{fill:none;stroke:url(#SVGID_19_);stroke-miterlimit:10;}
	.st19{fill:none;stroke:url(#SVGID_20_);stroke-miterlimit:10;}
	.st20{fill:none;stroke:url(#SVGID_21_);stroke-miterlimit:10;}
	.st21{fill:none;stroke:url(#SVGID_22_);stroke-miterlimit:10;}
	.st22{fill:none;stroke:url(#SVGID_23_);stroke-miterlimit:10;}
	.st23{fill:none;stroke:url(#SVGID_24_);stroke-miterlimit:10;}
	.st24{fill:none;stroke:url(#SVGID_25_);stroke-miterlimit:10;}
</style>
<g>
	<linearGradient id="SVGID_1_" gradientUnits="userSpaceOnUse" x1="8.3916" y1="450.005" x2="700.0637" y2="450.005">
		<stop  offset="0" style="stop-color:#F3CBA2"/>
		<stop  offset="0.1507" style="stop-color:#F3DEBB"/>
		<stop  offset="0.3859" style="stop-color:#D5A983"/>
		<stop  offset="0.6326" style="stop-color:#A57B5D"/>
		<stop  offset="0.8567" style="stop-color:#D5A983"/>
		<stop  offset="0.9987" style="stop-color:#D5A983"/>
	</linearGradient>
	<path class="st0" d="M700,892c-40.7,4.7-82.8,7-125.6,7c-25.9,0-52.5-0.9-78.9-2.6c-149.4-9.8-245.3-58-293.1-147.5
		c-41.5-77.5-40.8-174.1-40.1-259.2c0.4-56.9,0.8-110.7-11.8-149.8C108.4,209.9,62,180.9,34.3,163.6C18.5,153.7,8,147.1,9,127
		c1-19.8,72.4-45.1,224.8-79.8c21.5-4.9,41.4-6.8,59.9-6.8c38.3,0,70.6,8.2,98.4,15.3c20.5,5.2,38.2,9.7,53.8,9.7l0,0.9l0.9,0l0-0.9
		c42.8-0.1,54.6-5,80.4-15.5c21.5-8.8,54-22.1,123.6-39.9C665.4,6.3,682,3.2,700,0.9"/>
	<linearGradient id="SVGID_2_" gradientUnits="userSpaceOnUse" x1="7.5" y1="450.002" x2="700.0635" y2="450.002">
		<stop  offset="0" style="stop-color:#F3CBA2"/>
		<stop  offset="0.1507" style="stop-color:#F3DEBB"/>
		<stop  offset="0.3859" style="stop-color:#D5A983"/>
		<stop  offset="0.6326" style="stop-color:#A57B5D"/>
		<stop  offset="0.8567" style="stop-color:#D5A983"/>
		<stop  offset="0.9987" style="stop-color:#D5A983"/>
	</linearGradient>
	<path class="st1" d="M700,0c-18.1,2.3-34.7,5.4-49.4,9.1C580.9,27,548.4,40.3,526.8,49.1c-25.7,10.5-37.4,15.3-80.2,15.4l-0.3,0
		c0,0,0,0,0,0h0c-0.1,0-0.1,0-0.2,0c-15.5,0-33.3-4.5-53.8-9.7c-41.2-10.5-92.6-23.5-158.7-8.5C80.7,81.1,9,106.7,8.1,127
		c-1,20.7,9.7,27.3,25.8,37.4c27.6,17.3,73.8,46.1,115.7,175.9c12.6,39,12.2,92.6,11.8,149.5c-0.6,85.3-1.3,181.9,40.3,259.7
		c48,89.8,144.1,138.1,293.8,147.9c26.5,1.7,53,2.6,79,2.6c42.7,0,84.9-2.4,125.6-7"/>
	<linearGradient id="SVGID_3_" gradientUnits="userSpaceOnUse" x1="58.5298" y1="437.5728" x2="700.056" y2="437.5728">
		<stop  offset="0" style="stop-color:#F3CBA2"/>
		<stop  offset="0.1507" style="stop-color:#F3DEBB"/>
		<stop  offset="0.3859" style="stop-color:#D5A983"/>
		<stop  offset="0.6326" style="stop-color:#A57B5D"/>
		<stop  offset="0.8567" style="stop-color:#D5A983"/>
		<stop  offset="0.9987" style="stop-color:#D5A983"/>
	</linearGradient>
	<path class="st2" d="M700,840.7c-56.5,6.4-115.5,7.8-175.9,4.3c-134-7.5-221.1-48.9-266.2-126.5c-39.3-67.6-41.4-153.2-43.3-228.8
		c-1.3-53.2-2.6-103.4-16.6-140.3C155.4,231.7,110.4,203,83.6,185.8c-15.7-10-25.2-16.1-24.5-34.2c0.4-19.4,75.8-50,197-79.9
		c20.4-5.1,40.3-7.6,60.9-7.6c31.6,0,58.4,5.9,82,11.1c18.3,4,34.1,7.5,48.6,7.5c45.4,0.1,57.5-3.8,90-14.4
		c22.1-7.2,52.5-17,108.4-30.9c15.8-3.9,34.1-7,54.1-9.2"/>
	<linearGradient id="SVGID_4_" gradientUnits="userSpaceOnUse" x1="57.6388" y1="437.5731" x2="700.0559" y2="437.5731">
		<stop  offset="0" style="stop-color:#F3CBA2"/>
		<stop  offset="0.1507" style="stop-color:#F3DEBB"/>
		<stop  offset="0.3859" style="stop-color:#D5A983"/>
		<stop  offset="0.6326" style="stop-color:#A57B5D"/>
		<stop  offset="0.8567" style="stop-color:#D5A983"/>
		<stop  offset="0.9987" style="stop-color:#D5A983"/>
	</linearGradient>
	<path class="st3" d="M700,27.4c-20.1,2.2-38.4,5.2-54.3,9.2c-55.9,13.9-86.3,23.7-108.4,30.9c-32.3,10.5-44.4,14.4-89.7,14.3
		c-14.4,0-30.2-3.5-48.4-7.5c-23.7-5.2-50.5-11.1-82.2-11.1c-20.7,0-40.7,2.5-61.1,7.6c-121.5,30-197.3,60.9-197.7,80.8
		c-0.7,18.6,9,24.8,25,35c26.7,17.1,71.5,45.8,114.1,163.1c13.9,36.8,15.2,86.9,16.5,140c1.9,75.7,4.1,161.4,43.4,229.2
		c45.3,77.9,132.6,119.5,266.9,127c21.4,1.2,42.6,1.9,63.7,1.9c38.3,0,75.8-2.1,112.3-6.2"/>
	<linearGradient id="SVGID_5_" gradientUnits="userSpaceOnUse" x1="105.9863" y1="425.3042" x2="700.0543" y2="425.3042">
		<stop  offset="0" style="stop-color:#F3CBA2"/>
		<stop  offset="0.1507" style="stop-color:#F3DEBB"/>
		<stop  offset="0.3859" style="stop-color:#D5A983"/>
		<stop  offset="0.6326" style="stop-color:#A57B5D"/>
		<stop  offset="0.8567" style="stop-color:#D5A983"/>
		<stop  offset="0.9987" style="stop-color:#D5A983"/>
	</linearGradient>
	<path class="st4" d="M700,792.2c-47.3,5.2-96.5,6.5-147.5,4c-119.7-5.3-198.7-40.4-241.4-107.3c-37.3-58.4-42.2-133.6-46.5-199.9
		c-3.2-49-6.2-95.2-21.4-129.4c-42.8-104.2-85.8-132.3-111.5-149.1c-15.9-10.4-25.5-16.7-25.2-34.4c-0.2-20.9,71.8-55.6,171.2-82.5
		c21.1-5.9,41.8-8.8,63.4-8.8c25,0,46.7,3.9,65.9,7.3c15.6,2.8,29,5.2,41.7,5.2c51.4,0.4,60.8-2,113-15.4
		c19.5-5,43.9-11.3,78.6-19.5c17.1-4.1,37.3-7.1,59.7-9.1"/>
	<linearGradient id="SVGID_6_" gradientUnits="userSpaceOnUse" x1="105.0957" y1="425.3036" x2="700.0543" y2="425.3036">
		<stop  offset="0" style="stop-color:#F3CBA2"/>
		<stop  offset="0.1507" style="stop-color:#F3DEBB"/>
		<stop  offset="0.3859" style="stop-color:#D5A983"/>
		<stop  offset="0.6326" style="stop-color:#A57B5D"/>
		<stop  offset="0.8567" style="stop-color:#D5A983"/>
		<stop  offset="0.9987" style="stop-color:#D5A983"/>
	</linearGradient>
	<path class="st5" d="M700,52.3c-22.5,2-42.8,5-59.9,9.1c-34.7,8.2-59,14.5-78.6,19.5C509.4,94.3,500,96.7,448.7,96.3
		c-12.6-0.1-26-2.5-41.5-5.2c-19.2-3.4-41-7.3-66-7.3c-21.7,0-42.5,2.9-63.7,8.8c-99.8,27-172.1,62.1-171.9,83.4
		c-0.4,18.2,9.4,24.6,25.6,35.2c25.6,16.7,68.4,44.7,111.1,148.7c15.1,34.1,18.2,80.3,21.4,129.1c4.3,66.4,9.3,141.7,46.7,200.3
		c42.9,67.2,122.1,102.4,242.1,107.7c16.6,0.8,33,1.2,49.2,1.2c33.6,0,66.4-1.7,98.3-5.2"/>
	<linearGradient id="SVGID_7_" gradientUnits="userSpaceOnUse" x1="151.236" y1="413.221" x2="700.0522" y2="413.221">
		<stop  offset="0" style="stop-color:#F3CBA2"/>
		<stop  offset="0.1507" style="stop-color:#F3DEBB"/>
		<stop  offset="0.3859" style="stop-color:#D5A983"/>
		<stop  offset="0.6326" style="stop-color:#A57B5D"/>
		<stop  offset="0.8567" style="stop-color:#D5A983"/>
		<stop  offset="0.9987" style="stop-color:#D5A983"/>
	</linearGradient>
	<path class="st6" d="M700,745.9c-27.7,2.9-56.1,4.4-85.3,4.4c-11.2,0-22.6-0.2-33.9-0.6c-106.3-3.2-177.7-32.4-218.3-89.3
		c-35.5-49.8-42.8-112.1-49.8-172.3c-5.2-44.3-10.1-86.2-26.4-117.3c-42.5-90.3-81.6-116.3-107.4-133.6
		c-16.9-11.3-27.1-18.1-27-36.7c-0.9-23.8,63.6-62.2,147-87.4c25.5-8.1,48.2-10.7,68.4-10.7c18.4,0,34.8,2.1,49.5,4
		c11.8,1.5,23,2.9,33.3,3.1l5.2,0.1c60.1,0.9,65,1,179.1-24.7c18.2-4.1,40.8-7.1,65.8-8.8"/>
	<linearGradient id="SVGID_8_" gradientUnits="userSpaceOnUse" x1="150.3459" y1="413.2184" x2="700.0522" y2="413.2184">
		<stop  offset="0" style="stop-color:#F3CBA2"/>
		<stop  offset="0.1507" style="stop-color:#F3DEBB"/>
		<stop  offset="0.3859" style="stop-color:#D5A983"/>
		<stop  offset="0.6326" style="stop-color:#A57B5D"/>
		<stop  offset="0.8567" style="stop-color:#D5A983"/>
		<stop  offset="0.9987" style="stop-color:#D5A983"/>
	</linearGradient>
	<path class="st7" d="M700,75.2c-25,1.7-47.7,4.7-65.9,8.8c-113.9,25.7-118.8,25.6-178.9,24.7l-5.2-0.1c-10.3-0.1-21.4-1.5-33.2-3
		c-30.9-3.9-69.4-8.9-118.2,6.7c-83.8,25.3-148.6,64-147.7,88.3c-0.1,19.1,10.3,26,27.4,37.4c25.8,17.2,64.7,43.2,107.1,133.2
		c16.3,31,21.2,72.7,26.4,117c7,60.3,14.3,122.7,50,172.7c40.8,57.2,112.4,86.5,219,89.7c11.4,0.4,22.8,0.6,34,0.6
		c29.1,0,57.6-1.5,85.3-4.4"/>
	<linearGradient id="SVGID_9_" gradientUnits="userSpaceOnUse" x1="198.8065" y1="401.2717" x2="700.0498" y2="401.2717">
		<stop  offset="0" style="stop-color:#F3CBA2"/>
		<stop  offset="0.1507" style="stop-color:#F3DEBB"/>
		<stop  offset="0.3859" style="stop-color:#D5A983"/>
		<stop  offset="0.6326" style="stop-color:#A57B5D"/>
		<stop  offset="0.8567" style="stop-color:#D5A983"/>
		<stop  offset="0.9987" style="stop-color:#D5A983"/>
	</linearGradient>
	<path class="st8" d="M700,697.4c-23.5,2.3-47.6,3.5-72.3,3.5c-6.1,0-12.3-0.1-18.5-0.2c-206.6-2.3-227.4-115-245.7-214.5
		c-7.3-39.6-14.2-77-32-105.2c-42.1-76.9-79.3-102.1-103.9-118.8c-17.5-11.8-28-19-28.3-37.2c-0.8-11.5,11.2-27.7,32.9-44.4
		c23.1-17.8,54.4-33.9,88.2-45.5c29.2-10.9,53.8-13.6,75.6-13.6c11.5,0,22.2,0.8,32.5,1.5c7.9,0.6,15.4,1.1,22.7,1.2
		c10.9,0.2,20.4,0.7,28.8,1c38.8,1.7,62.2,2.8,148.7-15.4c18.7-4,43.2-6.9,71.3-8.3"/>
	<linearGradient id="SVGID_10_" gradientUnits="userSpaceOnUse" x1="197.9157" y1="401.2723" x2="700.0497" y2="401.2723">
		<stop  offset="0" style="stop-color:#F3CBA2"/>
		<stop  offset="0.1507" style="stop-color:#F3DEBB"/>
		<stop  offset="0.3859" style="stop-color:#D5A983"/>
		<stop  offset="0.6326" style="stop-color:#A57B5D"/>
		<stop  offset="0.8567" style="stop-color:#D5A983"/>
		<stop  offset="0.9987" style="stop-color:#D5A983"/>
	</linearGradient>
	<path class="st9" d="M700,100.7c-28.1,1.4-52.7,4.3-71.5,8.3c-86.4,18.2-109.8,17.1-148.6,15.4c-8.4-0.4-17.9-0.8-28.8-1
		c-7.2-0.1-14.7-0.7-22.6-1.2c-29.8-2.1-63.7-4.5-108.4,12.2c-33.8,11.6-65.2,27.9-88.4,45.7c-21.9,16.8-34.1,33.3-33.3,45.1
		c0.3,18.7,11,25.9,28.7,37.9c24.5,16.6,61.6,41.7,103.6,118.5c17.7,28.1,24.6,65.4,31.9,104.9c18.4,99.8,39.3,212.9,246.6,215.2
		c6.2,0.1,12.4,0.2,18.5,0.2c24.7,0,48.8-1.2,72.3-3.5"/>
	<linearGradient id="SVGID_11_" gradientUnits="userSpaceOnUse" x1="246.342" y1="389.6408" x2="700.0466" y2="389.6408">
		<stop  offset="0" style="stop-color:#F3CBA2"/>
		<stop  offset="0.1507" style="stop-color:#F3DEBB"/>
		<stop  offset="0.3859" style="stop-color:#D5A983"/>
		<stop  offset="0.6326" style="stop-color:#A57B5D"/>
		<stop  offset="0.8567" style="stop-color:#D5A983"/>
		<stop  offset="0.9987" style="stop-color:#D5A983"/>
	</linearGradient>
	<path class="st10" d="M700,649.1c-19.3,1.8-39.1,2.7-59.4,2.7c-1,0-2,0-2.9,0c-78.4,1-133.5-16.1-168.6-52.5
		c-31-32.1-42.8-74.7-54.3-115.9c-9.6-34.4-18.7-67-38-92.1c-41.2-63.5-76.4-87.5-99.7-103.5c-18.4-12.6-29.5-20.2-30.2-38.3
		c-2.4-24.5,37.8-69.2,95.2-92.4c35.4-16,62.9-18.6,88.2-18.6c6.3,0,12.5,0.2,18.6,0.3l3.5,0.1c14.8,0.5,27.3,1.7,39.3,2.9
		c32.3,3.2,62.7,6.2,131.5-7c19.8-3.8,46.4-6.6,76.8-7.4"/>
	<linearGradient id="SVGID_12_" gradientUnits="userSpaceOnUse" x1="245.4526" y1="389.6432" x2="700.0466" y2="389.6432">
		<stop  offset="0" style="stop-color:#F3CBA2"/>
		<stop  offset="0.1507" style="stop-color:#F3DEBB"/>
		<stop  offset="0.3859" style="stop-color:#D5A983"/>
		<stop  offset="0.6326" style="stop-color:#A57B5D"/>
		<stop  offset="0.8567" style="stop-color:#D5A983"/>
		<stop  offset="0.9987" style="stop-color:#D5A983"/>
	</linearGradient>
	<path class="st11" d="M700,126.6c-30.4,0.8-57.1,3.6-77,7.4c-68.7,13.2-99.1,10.2-131.3,7c-12-1.2-24.5-2.4-39.3-2.9l-3.5-0.1
		c-30.8-0.8-62.7-1.7-107.2,18.4c-57.7,23.3-98.1,68.5-95.7,93.3c0.7,18.5,11.9,26.2,30.6,39c23.2,15.9,58.3,39.9,99.4,103.2
		c19.3,25,28.3,57.4,37.9,91.8c11.5,41.3,23.4,84.1,54.5,116.3c34.2,35.5,87.4,52.8,162.5,52.8c2.2,0,4.4,0,6.7,0
		c21.3,0.1,42.1-0.8,62.3-2.7"/>
	<linearGradient id="SVGID_13_" gradientUnits="userSpaceOnUse" x1="294.6287" y1="378.4511" x2="700.0041" y2="378.4511">
		<stop  offset="0" style="stop-color:#F3CBA2"/>
		<stop  offset="0.1507" style="stop-color:#F3DEBB"/>
		<stop  offset="0.3859" style="stop-color:#D5A983"/>
		<stop  offset="0.6326" style="stop-color:#A57B5D"/>
		<stop  offset="0.8567" style="stop-color:#D5A983"/>
		<stop  offset="0.9987" style="stop-color:#D5A983"/>
	</linearGradient>
	<path class="st12" d="M700,154.4c-32.5,0.3-61.3,2.7-82.2,6.2c-56.3,9.5-88.6,4.2-119.7-0.8c-14.7-2.4-28.5-4.6-44.5-5.3
		c-1.8-0.1-3.6-0.1-5.4-0.1c-27.9,0-53.1,7.6-84.1,25.5c-46.2,23.1-71.6,71.2-68.8,94.1c1.1,17.8,12.4,25.5,33,39.6
		c21.8,14.9,54.8,37.4,94.3,87.4c21,21.8,33,50.2,44.5,77.7c13.4,31.9,27.2,64.9,55.5,88.5c28.4,23.7,68.9,35.3,123.5,35.3
		c6.4,0,13.1-0.2,19.9-0.5"/>
	<linearGradient id="SVGID_14_" gradientUnits="userSpaceOnUse" x1="295.5175" y1="378.4502" x2="700.0041" y2="378.4502">
		<stop  offset="0" style="stop-color:#F3CBA2"/>
		<stop  offset="0.1507" style="stop-color:#F3DEBB"/>
		<stop  offset="0.3859" style="stop-color:#D5A983"/>
		<stop  offset="0.6326" style="stop-color:#A57B5D"/>
		<stop  offset="0.8567" style="stop-color:#D5A983"/>
		<stop  offset="0.9987" style="stop-color:#D5A983"/>
	</linearGradient>
	<path class="st13" d="M666.1,601.1c-64.5,3-111.2-8.3-142.8-34.6c-28.1-23.4-41.9-56.3-55.3-88.1c-11.6-27.6-23.5-56.1-44.7-78
		c-39.6-50-72.6-72.6-94.5-87.5c-20.4-13.9-31.6-21.6-32.6-38.9c-2.8-22.7,22.4-70.3,68.3-93.2c30.9-17.8,55.9-25.4,83.7-25.4
		c1.8,0,3.6,0,5.3,0.1c15.9,0.7,29.7,2.9,44.4,5.3c31.2,5.1,63.5,10.3,120,0.8c20.8-3.5,49.6-5.9,82-6.2"/>
	<linearGradient id="SVGID_15_" gradientUnits="userSpaceOnUse" x1="341.7622" y1="362.0109" x2="700.0037" y2="362.0109">
		<stop  offset="0" style="stop-color:#F3CBA2"/>
		<stop  offset="0.1507" style="stop-color:#F3DEBB"/>
		<stop  offset="0.3859" style="stop-color:#D5A983"/>
		<stop  offset="0.6326" style="stop-color:#A57B5D"/>
		<stop  offset="0.8567" style="stop-color:#D5A983"/>
		<stop  offset="0.9987" style="stop-color:#D5A983"/>
	</linearGradient>
	<path class="st14" d="M700,180.6c-37.6-0.3-69.5,2.3-87.8,4.9c-46,6.3-79.8-1.4-109.6-8.2c-16.4-3.7-31.9-7.3-47.9-8.2
		c-0.9,0-1.9-0.1-2.8-0.1c-23.8,0-43.3,14.2-66.2,32.7c-34.4,22.9-46.3,75.3-43,96.8c1.6,18.5,14.9,27.4,38.9,43.4
		c21.1,14.1,50.1,33.4,86.1,69.4c22.3,17.9,36.7,39.7,50.6,60.9c15.9,24.2,30.9,47,56.5,62.7c22.2,13.6,49.7,20.2,85.2,20.2"/>
	<linearGradient id="SVGID_16_" gradientUnits="userSpaceOnUse" x1="342.6495" y1="362.0108" x2="700.0037" y2="362.0108">
		<stop  offset="0" style="stop-color:#F3CBA2"/>
		<stop  offset="0.1507" style="stop-color:#F3DEBB"/>
		<stop  offset="0.3859" style="stop-color:#D5A983"/>
		<stop  offset="0.6326" style="stop-color:#A57B5D"/>
		<stop  offset="0.8567" style="stop-color:#D5A983"/>
		<stop  offset="0.9987" style="stop-color:#D5A983"/>
	</linearGradient>
	<path class="st15" d="M694.4,552.3c-52.5,5.1-90.4-0.7-119.1-18.2c-25.5-15.6-40.4-38.3-56.3-62.4c-13.9-21.2-28.3-43.1-50.7-61.1
		c-36-36-65-55.3-86.2-69.4c-23.8-15.9-36.9-24.6-38.5-42.7c-3.2-21.4,8.6-73.3,42.7-96c22.8-18.4,42.1-32.5,65.7-32.5
		c0.9,0,1.8,0,2.8,0.1c15.9,0.9,31.3,4.4,47.7,8.2c29.9,6.8,63.7,14.5,109.9,8.2c18.2-2.5,50.1-5.2,87.6-4.9"/>
	<linearGradient id="SVGID_17_" gradientUnits="userSpaceOnUse" x1="386.3633" y1="346.4882" x2="700.0096" y2="346.4882">
		<stop  offset="0" style="stop-color:#F3CBA2"/>
		<stop  offset="0.1507" style="stop-color:#F3DEBB"/>
		<stop  offset="0.3859" style="stop-color:#D5A983"/>
		<stop  offset="0.6326" style="stop-color:#A57B5D"/>
		<stop  offset="0.8567" style="stop-color:#D5A983"/>
		<stop  offset="0.9987" style="stop-color:#D5A983"/>
	</linearGradient>
	<path class="st16" d="M700,205.3c-42.4-0.8-78.8,2.1-93.4,3.5c-36.5,3.4-69.9-6.4-99.4-15.1c-18.3-5.4-35.5-10.4-51.1-11.6
		c-20.1-1.3-33.3,17.3-46.1,35.3c-1.2,1.7-2.4,3.4-3.6,5.1c-20.8,21.8-21.7,77.2-17.5,100.7c2.5,21.2,20.3,32.2,52.6,52.1
		c18.7,11.6,42,26,70.7,47.3c22,12.9,38,26.9,53.4,40.4c29.2,25.6,54.4,47.7,107.9,47.7"/>
	<linearGradient id="SVGID_18_" gradientUnits="userSpaceOnUse" x1="387.2454" y1="346.4883" x2="700.0095" y2="346.4883">
		<stop  offset="0" style="stop-color:#F3CBA2"/>
		<stop  offset="0.1507" style="stop-color:#F3DEBB"/>
		<stop  offset="0.3859" style="stop-color:#D5A983"/>
		<stop  offset="0.6326" style="stop-color:#A57B5D"/>
		<stop  offset="0.8567" style="stop-color:#D5A983"/>
		<stop  offset="0.9987" style="stop-color:#D5A983"/>
	</linearGradient>
	<path class="st17" d="M673.4,509.9c-53.2,0-78.3-22-107.3-47.5c-15.4-13.6-31.4-27.6-53.5-40.5c-28.6-21.3-51.9-35.8-70.7-47.3
		c-32-19.8-49.7-30.7-52.2-51.5c-4.1-23.3-3.3-78.3,17.3-100c1.2-1.7,2.4-3.4,3.7-5.1c12.2-17.2,24.8-35,43.5-35
		c0.6,0,1.2,0,1.9,0.1c15.4,1.1,32.6,6.2,50.9,11.5c29.6,8.7,63.1,18.5,99.7,15.1c14.6-1.4,51.1-4.4,93.4-3.5"/>
	<linearGradient id="SVGID_19_" gradientUnits="userSpaceOnUse" x1="593.9424" y1="456.9384" x2="700.0601" y2="456.9384">
		<stop  offset="0" style="stop-color:#F3CBA2"/>
		<stop  offset="0.1507" style="stop-color:#F3DEBB"/>
		<stop  offset="0.3859" style="stop-color:#D5A983"/>
		<stop  offset="0.6326" style="stop-color:#A57B5D"/>
		<stop  offset="0.8567" style="stop-color:#D5A983"/>
		<stop  offset="0.9987" style="stop-color:#D5A983"/>
	</linearGradient>
	<path class="st18" d="M700,467.2c-39.4,4.8-66.7-5.7-105.9-21.8c15.4,3.9,33.5,6.3,54,7c2.3,0.1,4.6,0.1,6.9,0.1"/>
	<linearGradient id="SVGID_20_" gradientUnits="userSpaceOnUse" x1="425.9607" y1="333.7193" x2="700.0106" y2="333.7193">
		<stop  offset="0" style="stop-color:#F3CBA2"/>
		<stop  offset="0.1507" style="stop-color:#F3DEBB"/>
		<stop  offset="0.3859" style="stop-color:#D5A983"/>
		<stop  offset="0.6326" style="stop-color:#A57B5D"/>
		<stop  offset="0.8567" style="stop-color:#D5A983"/>
		<stop  offset="0.9987" style="stop-color:#D5A983"/>
	</linearGradient>
	<path class="st19" d="M700,232.5c-29.8-0.6-58.6,0.7-79.8,1.7l-0.2,0c-7.3,0.3-13.6,0.6-18.9,0.8c-28.1,0.8-60.8-11-89.7-21.3
		c-20.4-7.3-39.6-14.2-54.2-15.6c-17.1-1.4-24,24.6-28.2,47.1l0,0.1c-7.9,21.2,4.5,82.2,8.6,102.2c3.8,24.5,28.6,38.6,81.9,65.2
		c5.1,2.9,10.8,5.7,17.1,8.5c6.7,3.3,13.8,6.9,21.4,10.6c2.7,1,5.3,2.1,7.8,3.1c6.2,3.2,13.1,6.1,20.8,8.4c1.1,0.4,2.1,0.9,3.2,1.3
		c34.9,14.3,60.2,24.7,91.6,24.7"/>
	<linearGradient id="SVGID_21_" gradientUnits="userSpaceOnUse" x1="426.8433" y1="303.1502" x2="700.0106" y2="303.1502">
		<stop  offset="0" style="stop-color:#F3CBA2"/>
		<stop  offset="0.1507" style="stop-color:#F3DEBB"/>
		<stop  offset="0.3859" style="stop-color:#D5A983"/>
		<stop  offset="0.6326" style="stop-color:#A57B5D"/>
		<stop  offset="0.8567" style="stop-color:#D5A983"/>
		<stop  offset="0.9987" style="stop-color:#D5A983"/>
	</linearGradient>
	<path class="st20" d="M700,255.4c-19.7,0-39.8,1.1-57.5,2.1c-19.5,1.1-36.3,2-46.9,1.2c-19.5-1.5-48.6-13.9-76.8-25.8
		c-23.8-10.1-46.2-19.6-60.3-21.3c-3.3-0.4-6.1,0.9-8.3,3.8c-3.5,4.6-5.3,13.2-5.3,24.1c0.1,10,1.8,20.4,4.6,27.9
		c2.3,8.7,8.2,25.6,14.5,43.5c7.9,22.5,16.9,48.1,20,61.4c2.6,13.1,11.2,24.5,26.7,35c-46.6-23.5-68.7-37.3-72.2-59.9
		c-4.1-20-16.5-80.8-8.6-101.8l0-0.1c4-21.6,10.5-46.5,26-46.5c0.4,0,0.8,0,1.3,0.1c14.5,1.4,33.7,8.3,54,15.6
		c28.9,10.4,61.7,22.2,90,21.4c5.3-0.2,11.6-0.5,18.9-0.8l0.2,0c21.2-1,50-2.4,79.8-1.7"/>
	<linearGradient id="SVGID_22_" gradientUnits="userSpaceOnUse" x1="445.4066" y1="320.294" x2="700.0007" y2="320.294">
		<stop  offset="0" style="stop-color:#F3CBA2"/>
		<stop  offset="0.1507" style="stop-color:#F3DEBB"/>
		<stop  offset="0.3859" style="stop-color:#D5A983"/>
		<stop  offset="0.6326" style="stop-color:#A57B5D"/>
		<stop  offset="0.8567" style="stop-color:#D5A983"/>
		<stop  offset="0.9987" style="stop-color:#D5A983"/>
	</linearGradient>
	<path class="st21" d="M655.8,280c-27.4,4.3-53.3,8.3-65.8,4.8c-11-3.1-32.7-13.9-55.8-25.3c-29.7-14.7-60.4-29.9-74.5-32.2
		c-1.9-0.3-3.3,0.6-4.3,2.6c-4.8,9.5,2,43.7,16.8,59.3c18,19,54.1,83.3,60.3,107.6c3,11.8,10,22,20.8,30.4
		c-5.8-2.1-11.2-4.3-16.1-6.5c-0.6-0.3-1.3-0.6-1.9-0.9l-0.4-0.2c-5.3-2.6-10.4-5.2-15.3-7.6c-20.7-11.8-31.7-24.6-34.7-39.6
		c-3.1-13.4-12.1-38.9-20-61.6c-6.3-17.8-12.2-34.6-14.5-43.4c-2.8-7.4-4.5-17.7-4.5-27.6c-0.1-10.8,1.7-19.1,5.1-23.6
		c1.8-2.3,4-3.5,6.5-3.5c0.3,0,0.6,0,1,0.1c13.9,1.7,36.3,11.2,60,21.3c28.2,12,57.4,24.4,77.1,25.9c10.7,0.8,27.5-0.2,47-1.3
		c17.7-1,37.8-2.1,57.4-2.1"/>
	<linearGradient id="SVGID_23_" gradientUnits="userSpaceOnUse" x1="454.173" y1="338.5534" x2="663.0161" y2="338.5534">
		<stop  offset="0" style="stop-color:#F3CBA2"/>
		<stop  offset="0.1507" style="stop-color:#F3DEBB"/>
		<stop  offset="0.3859" style="stop-color:#D5A983"/>
		<stop  offset="0.6326" style="stop-color:#A57B5D"/>
		<stop  offset="0.8567" style="stop-color:#D5A983"/>
		<stop  offset="0.9987" style="stop-color:#D5A983"/>
	</linearGradient>
	<path class="st22" d="M663,449c-18.4,0-38-2.2-60-6.7c-17.7-4.7-33.2-9.4-46.7-14.2c-12-8.5-19.7-19.2-22.9-31.7
		c-6.2-24.4-42.4-88.9-60.6-108c-14.7-15.4-21.4-48.9-16.7-58.2c0.7-1.4,1.6-2.1,2.8-2.1c0.2,0,0.4,0,0.6,0
		c14,2.3,44.6,17.4,74.3,32.1c23.1,11.4,44.9,22.2,56,25.3c12.7,3.6,38.6-0.5,66.1-4.7"/>
	<linearGradient id="SVGID_24_" gradientUnits="userSpaceOnUse" x1="548.2673" y1="428.9766" x2="560.6113" y2="428.9766">
		<stop  offset="0" style="stop-color:#F3CBA2"/>
		<stop  offset="0.1507" style="stop-color:#F3DEBB"/>
		<stop  offset="0.3859" style="stop-color:#D5A983"/>
		<stop  offset="0.6326" style="stop-color:#A57B5D"/>
		<stop  offset="0.8567" style="stop-color:#D5A983"/>
		<stop  offset="0.9987" style="stop-color:#D5A983"/>
	</linearGradient>
	<path class="st23" d="M558.3,431c-3.4-1.7-6.6-3.3-9.8-4.9c2.4,0.9,4.9,1.8,7.4,2.8c1.4,1,2.9,2,4.5,2.9
		C559.7,431.6,559,431.3,558.3,431z"/>
	<linearGradient id="SVGID_25_" gradientUnits="userSpaceOnUse" x1="555.4655" y1="440.2176" x2="697.2" y2="440.2176">
		<stop  offset="0" style="stop-color:#F3CBA2"/>
		<stop  offset="0.1507" style="stop-color:#F3DEBB"/>
		<stop  offset="0.3859" style="stop-color:#D5A983"/>
		<stop  offset="0.6326" style="stop-color:#A57B5D"/>
		<stop  offset="0.8567" style="stop-color:#D5A983"/>
		<stop  offset="0.9987" style="stop-color:#D5A983"/>
	</linearGradient>
	<path class="st24" d="M697.1,447c-15.9,3.6-32.4,5.1-48.9,4.5c-23.9-0.9-44.4-3.9-61.3-9.1c-6.6-2.7-13.5-5.5-20.8-8.4
		c-1.4-0.7-2.7-1.4-3.9-2.2c-1-0.6-2-1.2-2.9-1.8c12.7,4.5,27.2,8.8,43.5,13.1c22,4.5,41.7,6.7,60.2,6.7"/>
</g>
</svg>
