<?xml version="1.0" encoding="utf-8"?>
<!-- Generator: Adobe Illustrator 24.0.2, SVG Export Plug-In . SVG Version: 6.00 Build 0)  -->
<svg version="1.0" id="Layer_1" xmlns="http://www.w3.org/2000/svg" xmlns:xlink="http://www.w3.org/1999/xlink" x="0px" y="0px"
	 viewBox="0 0 400 400" style="enable-background:new 0 0 400 400;" xml:space="preserve">
<style type="text/css">
	.st0{fill:none;stroke:url(#SVGID_1_);stroke-miterlimit:10;}
	.st1{fill:none;stroke:url(#SVGID_2_);stroke-miterlimit:10;}
	.st2{fill:none;stroke:url(#SVGID_3_);stroke-miterlimit:10;}
	.st3{fill:none;stroke:url(#SVGID_4_);stroke-miterlimit:10;}
	.st4{fill:none;stroke:url(#SVGID_5_);stroke-miterlimit:10;}
	.st5{fill:none;stroke:url(#SVGID_6_);stroke-miterlimit:10;}
	.st6{fill:none;stroke:url(#SVGID_7_);stroke-miterlimit:10;}
	.st7{fill:none;stroke:url(#SVGID_8_);stroke-miterlimit:10;}
	.st8{fill:none;stroke:url(#SVGID_9_);stroke-miterlimit:10;}
	.st9{fill:none;stroke:url(#SVGID_10_);stroke-miterlimit:10;}
	.st10{fill:none;stroke:url(#SVGID_11_);stroke-miterlimit:10;}
	.st11{fill:none;stroke:url(#SVGID_12_);stroke-miterlimit:10;}
	.st12{fill:none;stroke:url(#SVGID_13_);stroke-miterlimit:10;}
	.st13{fill:none;stroke:url(#SVGID_14_);stroke-miterlimit:10;}
	.st14{fill:none;stroke:url(#SVGID_15_);stroke-miterlimit:10;}
	.st15{fill:none;stroke:url(#SVGID_16_);stroke-miterlimit:10;}
</style>
<g>
	<linearGradient id="SVGID_1_" gradientUnits="userSpaceOnUse" x1="4.2826" y1="194.466" x2="392.8217" y2="194.466">
		<stop  offset="0" style="stop-color:#F3CBA2"/>
		<stop  offset="0.1507" style="stop-color:#F3DEBB"/>
		<stop  offset="0.3859" style="stop-color:#D5A983"/>
		<stop  offset="0.6326" style="stop-color:#A57B5D"/>
		<stop  offset="0.8567" style="stop-color:#D5A983"/>
		<stop  offset="0.9987" style="stop-color:#D5A983"/>
	</linearGradient>
	<path class="st0" d="M4.5,386c59.4-21.8,122.6-47.7,180-74c128.5-58.8,206.2-109.1,207.8-134.4c0.3-4.7-1.9-8.5-6.9-11.6
		c-33.4-21-69.1-31.8-100.5-41.3c-52.6-15.9-98.1-29.7-112.3-84.3c-4.4-16.8-12.6-27.6-25.2-33.2C120.2-4.6,72.8,8.7,4.5,39.7"/>
	<linearGradient id="SVGID_2_" gradientUnits="userSpaceOnUse" x1="4.2824" y1="194.4243" x2="391.8684" y2="194.4243">
		<stop  offset="0" style="stop-color:#F3CBA2"/>
		<stop  offset="0.1507" style="stop-color:#F3DEBB"/>
		<stop  offset="0.3859" style="stop-color:#D5A983"/>
		<stop  offset="0.6326" style="stop-color:#A57B5D"/>
		<stop  offset="0.8567" style="stop-color:#D5A983"/>
		<stop  offset="0.9987" style="stop-color:#D5A983"/>
	</linearGradient>
	<path class="st1" d="M4.5,40.8C72.8,9.7,120.1-3.7,147,8.2c12.3,5.4,20.4,16,24.7,32.5c14.4,55.1,60.1,68.9,113,84.9
		c31.4,9.5,66.9,20.2,100.3,41.2c4.6,2.9,6.7,6.4,6.4,10.7c-1.6,25-79.1,74.9-207.3,133.6C126.9,337.3,63.7,363.2,4.5,385"/>
	<linearGradient id="SVGID_3_" gradientUnits="userSpaceOnUse" x1="4.293" y1="201.3741" x2="346.167" y2="201.3741">
		<stop  offset="0" style="stop-color:#F3CBA2"/>
		<stop  offset="0.1507" style="stop-color:#F3DEBB"/>
		<stop  offset="0.3859" style="stop-color:#D5A983"/>
		<stop  offset="0.6326" style="stop-color:#A57B5D"/>
		<stop  offset="0.8567" style="stop-color:#D5A983"/>
		<stop  offset="0.9987" style="stop-color:#D5A983"/>
	</linearGradient>
	<path class="st2" d="M4.5,376.9c48.7-18.3,99.6-39.5,146.9-61.3c119.7-55.1,192.3-102.5,194.2-127c0.4-4.6-1.7-8.4-6.4-11.4
		C308.9,158,276.6,148,248,139.1c-48.1-14.9-89.6-27.8-102.7-77.9c-4.1-15.8-12-26.1-23.9-31.3C98.1,19.8,58.7,29.3,4.5,52.5"/>
	<linearGradient id="SVGID_4_" gradientUnits="userSpaceOnUse" x1="4.2926" y1="201.354" x2="345.2142" y2="201.354">
		<stop  offset="0" style="stop-color:#F3CBA2"/>
		<stop  offset="0.1507" style="stop-color:#F3DEBB"/>
		<stop  offset="0.3859" style="stop-color:#D5A983"/>
		<stop  offset="0.6326" style="stop-color:#A57B5D"/>
		<stop  offset="0.8567" style="stop-color:#D5A983"/>
		<stop  offset="0.9987" style="stop-color:#D5A983"/>
	</linearGradient>
	<path class="st3" d="M4.5,53.5C58.6,30.3,97.9,20.7,121,30.8c11.7,5.1,19.3,15.1,23.4,30.6c13.2,50.7,55,63.6,103.3,78.6
		c28.5,8.8,60.8,18.8,91,38c4.3,2.9,6.3,6.3,5.9,10.6c-1.9,24.1-74.3,71.2-193.7,126.2c-47.2,21.7-98,42.8-146.5,61.1"/>
	<linearGradient id="SVGID_5_" gradientUnits="userSpaceOnUse" x1="4.3077" y1="208.1432" x2="299.5363" y2="208.1432">
		<stop  offset="0" style="stop-color:#F3CBA2"/>
		<stop  offset="0.1507" style="stop-color:#F3DEBB"/>
		<stop  offset="0.3859" style="stop-color:#D5A983"/>
		<stop  offset="0.6326" style="stop-color:#A57B5D"/>
		<stop  offset="0.8567" style="stop-color:#D5A983"/>
		<stop  offset="0.9987" style="stop-color:#D5A983"/>
	</linearGradient>
	<path class="st4" d="M4.5,367.7c10.1-3.9,20.4-8,30.8-12.3c60.2-24.6,118.1-51.5,163-75.9c50.5-27.4,83.5-50.9,95.5-67.9
		c7.1-10.1,6.9-17.7-0.7-23.1c-27.2-17.5-56.3-26.8-82-34.9C167.6,139.7,130,127.7,118,82c-3.9-14.9-11.3-24.5-22.7-29.4
		C76.4,44.4,47,49.2,4.5,65.8"/>
	<linearGradient id="SVGID_6_" gradientUnits="userSpaceOnUse" x1="4.3075" y1="208.0992" x2="298.537" y2="208.0992">
		<stop  offset="0" style="stop-color:#F3CBA2"/>
		<stop  offset="0.1507" style="stop-color:#F3DEBB"/>
		<stop  offset="0.3859" style="stop-color:#D5A983"/>
		<stop  offset="0.6326" style="stop-color:#A57B5D"/>
		<stop  offset="0.8567" style="stop-color:#D5A983"/>
		<stop  offset="0.9987" style="stop-color:#D5A983"/>
	</linearGradient>
	<path class="st5" d="M4.5,66.8C46.9,50.2,76.2,45.3,95,53.4c11,4.8,18.3,14.2,22.1,28.8c12.1,46.2,49.9,58.3,93.7,72.2
		c25.6,8.2,54.7,17.4,81.8,34.8c7.1,5,7.3,12.1,0.5,21.8c-11.9,16.9-44.8,40.3-95.2,67.6C153,303,95.2,329.9,35,354.5
		c-10.3,4.2-20.5,8.3-30.5,12.2"/>
	<linearGradient id="SVGID_7_" gradientUnits="userSpaceOnUse" x1="4.3366" y1="212.4258" x2="252.888" y2="212.4258">
		<stop  offset="0" style="stop-color:#F3CBA2"/>
		<stop  offset="0.1507" style="stop-color:#F3DEBB"/>
		<stop  offset="0.3859" style="stop-color:#D5A983"/>
		<stop  offset="0.6326" style="stop-color:#A57B5D"/>
		<stop  offset="0.8567" style="stop-color:#D5A983"/>
		<stop  offset="0.9987" style="stop-color:#D5A983"/>
	</linearGradient>
	<path class="st6" d="M16,353.4c90.1-37.2,204.6-93.7,231-130.7c7.2-10,7.1-17.5-0.1-23c-24.2-15.7-50-24.2-72.8-31.8
		c-38.8-12.8-72.4-23.9-83.4-64.8l-0.1-0.4c-3.7-14-10.7-23-21.4-27.6c-14.7-6.3-36.2-4.2-64.8,5"/>
	<linearGradient id="SVGID_8_" gradientUnits="userSpaceOnUse" x1="4.336" y1="212.4524" x2="251.8945" y2="212.4524">
		<stop  offset="0" style="stop-color:#F3CBA2"/>
		<stop  offset="0.1507" style="stop-color:#F3DEBB"/>
		<stop  offset="0.3859" style="stop-color:#D5A983"/>
		<stop  offset="0.6326" style="stop-color:#A57B5D"/>
		<stop  offset="0.8567" style="stop-color:#D5A983"/>
		<stop  offset="0.9987" style="stop-color:#D5A983"/>
	</linearGradient>
	<path class="st7" d="M4.5,81.1c28.5-9.2,49.9-11.3,64.4-5c10.4,4.5,17.2,13.3,20.8,26.8l0,0.2c11,41.7,44.9,52.9,84.1,65.9
		c22.7,7.5,48.5,16,72.5,31.6c6.7,5.1,6.7,12.2-0.1,21.7C220,258.9,105.6,315.4,15.7,352.5"/>
	<linearGradient id="SVGID_9_" gradientUnits="userSpaceOnUse" x1="4.2936" y1="221.1937" x2="206.2393" y2="221.1937">
		<stop  offset="0" style="stop-color:#F3CBA2"/>
		<stop  offset="0.1507" style="stop-color:#F3DEBB"/>
		<stop  offset="0.3859" style="stop-color:#D5A983"/>
		<stop  offset="0.6326" style="stop-color:#A57B5D"/>
		<stop  offset="0.8567" style="stop-color:#D5A983"/>
		<stop  offset="0.9987" style="stop-color:#D5A983"/>
	</linearGradient>
	<path class="st8" d="M4.5,348.2c43.9-18.7,85.9-39,118.9-57.5c39.5-22.2,66.1-41.8,76.8-56.6c7.2-9.9,7.4-17.4,0.6-23.1
		c-21.1-14-43.7-21.7-63.6-28.6c-34.4-11.8-64.1-22.1-73.8-58.9c-3.5-13.1-10.1-21.5-20.3-25.9c-9.7-4.2-22.7-4.4-38.6-1.2"/>
	<linearGradient id="SVGID_10_" gradientUnits="userSpaceOnUse" x1="4.2935" y1="221.1415" x2="205.2536" y2="221.1415">
		<stop  offset="0" style="stop-color:#F3CBA2"/>
		<stop  offset="0.1507" style="stop-color:#F3DEBB"/>
		<stop  offset="0.3859" style="stop-color:#D5A983"/>
		<stop  offset="0.6326" style="stop-color:#A57B5D"/>
		<stop  offset="0.8567" style="stop-color:#D5A983"/>
		<stop  offset="0.9987" style="stop-color:#D5A983"/>
	</linearGradient>
	<path class="st9" d="M4.5,97.3c15.8-3.1,28.6-2.9,38.2,1.2c9.9,4.2,16.3,12.5,19.7,25.2c9.8,37.3,39.8,47.6,74.5,59.5
		c19.9,6.8,42.4,14.6,63.3,28.5c6.3,5.2,6,12.3-0.8,21.7c-10.6,14.7-37.1,34.2-76.5,56.3C90,308.3,48.2,328.5,4.5,347.1"/>
	<linearGradient id="SVGID_11_" gradientUnits="userSpaceOnUse" x1="4.2823" y1="228.8232" x2="159.5925" y2="228.8232">
		<stop  offset="0" style="stop-color:#F3CBA2"/>
		<stop  offset="0.1507" style="stop-color:#F3DEBB"/>
		<stop  offset="0.3859" style="stop-color:#D5A983"/>
		<stop  offset="0.6326" style="stop-color:#A57B5D"/>
		<stop  offset="0.8567" style="stop-color:#D5A983"/>
		<stop  offset="0.9987" style="stop-color:#D5A983"/>
	</linearGradient>
	<path class="st10" d="M4.5,337.6c63-28.7,128.8-64.9,148.8-92.1c7.2-9.9,7.7-17.5,1.4-23.3c-18.1-12.2-37.4-19.2-54.4-25.4
		c-29.8-10.8-55.6-20.2-64.2-52.5c-3.3-12.2-9.6-20.2-19.2-24.2"/>
	<linearGradient id="SVGID_12_" gradientUnits="userSpaceOnUse" x1="4.2822" y1="228.7389" x2="158.6148" y2="228.7389">
		<stop  offset="0" style="stop-color:#F3CBA2"/>
		<stop  offset="0.1507" style="stop-color:#F3DEBB"/>
		<stop  offset="0.3859" style="stop-color:#D5A983"/>
		<stop  offset="0.6326" style="stop-color:#A57B5D"/>
		<stop  offset="0.8567" style="stop-color:#D5A983"/>
		<stop  offset="0.9987" style="stop-color:#D5A983"/>
	</linearGradient>
	<path class="st11" d="M16.5,120.9c9.4,3.9,15.5,11.7,18.7,23.6c8.7,32.8,34.7,42.3,64.8,53.2c17,6.2,36.2,13.1,54.1,25.3
		c5.8,5.4,5.3,12.5-1.6,22c-19.8,27-85.3,63.1-148,91.7"/>
	<linearGradient id="SVGID_13_" gradientUnits="userSpaceOnUse" x1="4.2655" y1="245.6905" x2="112.8789" y2="245.6905">
		<stop  offset="0" style="stop-color:#F3CBA2"/>
		<stop  offset="0.1507" style="stop-color:#F3DEBB"/>
		<stop  offset="0.3859" style="stop-color:#D5A983"/>
		<stop  offset="0.6326" style="stop-color:#A57B5D"/>
		<stop  offset="0.8567" style="stop-color:#D5A983"/>
		<stop  offset="0.9987" style="stop-color:#D5A983"/>
	</linearGradient>
	<path class="st12" d="M4.5,326c58.6-29.3,90.8-54,101.8-68.9c7.2-9.8,8-17.7,2.2-23.7c-15-10.5-30.3-16.4-45.2-22.2
		c-25.3-9.8-47.1-18.3-54.6-46.2"/>
	<linearGradient id="SVGID_14_" gradientUnits="userSpaceOnUse" x1="4.2653" y1="245.282" x2="111.9152" y2="245.282">
		<stop  offset="0" style="stop-color:#F3CBA2"/>
		<stop  offset="0.1507" style="stop-color:#F3DEBB"/>
		<stop  offset="0.3859" style="stop-color:#D5A983"/>
		<stop  offset="0.6326" style="stop-color:#A57B5D"/>
		<stop  offset="0.8567" style="stop-color:#D5A983"/>
		<stop  offset="0.9987" style="stop-color:#D5A983"/>
	</linearGradient>
	<path class="st13" d="M7.8,165.3c7.6,28.4,29.6,36.9,55.1,46.8c14.8,5.7,30.1,11.7,44.9,22c5.4,5.5,4.6,13.1-2.4,22.4
		c-11,14.8-42.9,39.3-101.1,68.4"/>
	<linearGradient id="SVGID_15_" gradientUnits="userSpaceOnUse" x1="4.2338" y1="268.8683" x2="66.2575" y2="268.8683">
		<stop  offset="0" style="stop-color:#F3CBA2"/>
		<stop  offset="0.1507" style="stop-color:#F3DEBB"/>
		<stop  offset="0.3859" style="stop-color:#D5A983"/>
		<stop  offset="0.6326" style="stop-color:#A57B5D"/>
		<stop  offset="0.8567" style="stop-color:#D5A983"/>
		<stop  offset="0.9987" style="stop-color:#D5A983"/>
	</linearGradient>
	<path class="st14" d="M4.5,312.1c24.6-14.6,44.9-29.7,54.8-43c7.4-9.9,8.4-18.1,3.2-24.3l-0.1-0.1c-11.9-8.7-24.2-13.9-36-19"/>
	<linearGradient id="SVGID_16_" gradientUnits="userSpaceOnUse" x1="4.2329" y1="268.7987" x2="65.2875" y2="268.7987">
		<stop  offset="0" style="stop-color:#F3CBA2"/>
		<stop  offset="0.1507" style="stop-color:#F3DEBB"/>
		<stop  offset="0.3859" style="stop-color:#D5A983"/>
		<stop  offset="0.6326" style="stop-color:#A57B5D"/>
		<stop  offset="0.8567" style="stop-color:#D5A983"/>
		<stop  offset="0.9987" style="stop-color:#D5A983"/>
	</linearGradient>
	<path class="st15" d="M26,226.6c11.8,5,24,10.2,35.8,18.8c4.9,5.9,3.8,13.7-3.2,23.1c-9.8,13.1-29.8,28-54,42.5"/>
</g>
</svg>
