<svg xmlns="http://www.w3.org/2000/svg" xmlns:xlink="http://www.w3.org/1999/xlink" viewBox="0 0 536.22 180.56"><defs><style>.cls-1{fill:url(#linear-gradient);}.cls-2{fill:url(#linear-gradient-2);}.cls-3{fill:url(#linear-gradient-3);}.cls-4{fill:#fff;}</style><linearGradient id="linear-gradient" x1="-60.82" y1="282.83" x2="16.34" y2="282.83" gradientTransform="translate(212.7 -104.2) rotate(33.77)" gradientUnits="userSpaceOnUse"><stop offset="0.45" stop-color="#e6007e"/><stop offset="0.55" stop-color="#db037d"/><stop offset="0.72" stop-color="#bd0b7b"/><stop offset="0.95" stop-color="#8e1778"/><stop offset="1" stop-color="#831a77"/></linearGradient><linearGradient id="linear-gradient-2" x1="-137.82" y1="263.15" x2="65.72" y2="126.61" xlink:href="#linear-gradient"/><linearGradient id="linear-gradient-3" x1="-2.58" y1="85.97" x2="-2.58" y2="398.9" gradientTransform="translate(212.7 -104.2) rotate(33.77)" gradientUnits="userSpaceOnUse"><stop offset="0.19" stop-color="#00accc"/><stop offset="0.31" stop-color="#02a7c8"/><stop offset="0.45" stop-color="#0697bd"/><stop offset="0.61" stop-color="#0e7eab"/><stop offset="0.78" stop-color="#195b92"/><stop offset="0.92" stop-color="#233979"/></linearGradient></defs><title>Asset 6</title><g id="Layer_2" data-name="Layer 2"><g id="Layer_1-2" data-name="Layer 1"><path class="cls-1" d="M74.41,132A38.58,38.58,0,1,1,10.28,89.07a19.29,19.29,0,1,1,32.07,21.45A19.28,19.28,0,0,0,74.41,132Z"/><path class="cls-2" d="M117.37,67.74A19.29,19.29,0,0,0,85.23,46.39,19.29,19.29,0,0,1,53.13,25l.1-.15a38.58,38.58,0,0,1,64.14,42.9Z"/><path class="cls-3" d="M10.28,89.07A38.58,38.58,0,1,0,74.41,132a19.28,19.28,0,0,0-5.31-26.75,19.29,19.29,0,0,1-5.31-26.76l.06-.09a19.3,19.3,0,0,1,26.66-5.25l.06,0a19.31,19.31,0,0,0,26.7-5.28l.1-.14a38.58,38.58,0,0,0-64.14-42.9l-.1.15c18-26.93,52.37-32.58,79.31-14.57a58.65,58.65,0,0,1-16.22,105.1,58.67,58.67,0,0,1-90.94,55.13C-1.66,152.64-7.74,116,10.28,89.07Z"/><path class="cls-4" d="M162.47,95.47,170,93.83A20.56,20.56,0,0,0,178.27,108q6.94,5.16,17.59,5.16,11.29,0,17.68-4.5a13.87,13.87,0,0,0,6.38-11.87q0-7-5.4-10.72a33.48,33.48,0,0,0-13-5.08q-7.6-1.38-15.22-3a26.76,26.76,0,0,1-13-6.72q-5.42-5.07-5.41-14.07,0-9.49,8.19-16.37t21.77-6.87q12.6,0,20.38,6.38a25.93,25.93,0,0,1,9.41,16.37l-7.53,1.63A19.51,19.51,0,0,0,213.21,46q-5.73-4.83-15.38-4.83-10.49,0-16.37,4.5A13.75,13.75,0,0,0,175.57,57q0,7.05,5.4,10.64a33.37,33.37,0,0,0,13.09,4.91q7.69,1.32,15.31,3a26.57,26.57,0,0,1,13,6.79q5.4,5.16,5.4,14.49,0,10.31-8.84,16.94t-23.08,6.63q-14.4,0-23-7A28.17,28.17,0,0,1,162.47,95.47Z"/><path class="cls-4" d="M241.84,33.67V70.52q1.82-3.51,6.76-6.88t12.8-3.35q10.47,0,16.15,6T283.24,82v37H277.9V83.61q0-8.88-4.27-13.71T261,65.06a19.19,19.19,0,0,0-13.65,5.12q-5.46,5.13-5.46,14.45V119h-5.35V33.67Z"/><path class="cls-4" d="M477.18,101.69l5.11,2a27.49,27.49,0,0,1-9.66,12.06,26.69,26.69,0,0,1-15.7,4.55q-13.2,0-20.59-8.76T429,90.32a31.1,31.1,0,0,1,7.73-21.16q7.74-8.88,20.25-8.87t19.85,8.3q7.44,8.31,7.45,20.7l-.11,2.51H434.41q.45,10.13,6.54,16.83t16,6.71a21.68,21.68,0,0,0,12.68-3.75A19.82,19.82,0,0,0,477.18,101.69ZM456.93,65.41a20.55,20.55,0,0,0-15.24,6.08,25.08,25.08,0,0,0-7.06,15.42h44.14q-.79-9.68-6.66-15.59T456.93,65.41Z"/><path class="cls-4" d="M490.83,103.06l5.23-1.14a14.29,14.29,0,0,0,5.75,9.84q4.83,3.58,12.23,3.58,7.85,0,12.28-3.12a9.66,9.66,0,0,0,4.44-8.25A8.43,8.43,0,0,0,527,96.52,23.26,23.26,0,0,0,518,93q-5.3-1-10.58-2.1a18.7,18.7,0,0,1-9-4.67q-3.76-3.52-3.76-9.78,0-6.6,5.69-11.38t15.13-4.77q8.76,0,14.16,4.43A18,18,0,0,1,536.1,76.1l-5.23,1.14a13.51,13.51,0,0,0-4.78-8.59q-4-3.36-10.69-3.36-7.27,0-11.37,3.13a9.58,9.58,0,0,0-4.1,7.91,8.31,8.31,0,0,0,3.75,7.39,23.18,23.18,0,0,0,9.1,3.41q5.36.91,10.64,2.05a18.4,18.4,0,0,1,9,4.72q3.76,3.59,3.76,10.07a14.12,14.12,0,0,1-6.14,11.77q-6.15,4.61-16,4.61t-16-4.84A19.56,19.56,0,0,1,490.83,103.06Z"/><path class="cls-4" d="M365.83,69.5c9.9,0,19.89-.41,29.78,0,22.74,1,22.81,39.57,0,40.35-3.86.13-3.87,6.13,0,6C419.2,115.05,427,81.44,408.9,68,402.28,63,394.75,63.5,387,63.5H365.83c-3.86,0-3.87,6,0,6Z"/><rect class="cls-4" x="362.83" y="63.56" width="6.19" height="83.33" rx="2.88"/><path class="cls-4" d="M333,63.6c-5.23,0-10.47-.15-15.7,0a23.28,23.28,0,0,0-20.82,13.8c-7.25,16.17,1.64,37.89,20.74,38.55,3.86.13,3.86-5.87,0-6-16.22-.56-22.16-22.3-13-33.91,6.82-8.62,19-6.44,28.74-6.44,3.86,0,3.87-6,0-6Z"/><rect class="cls-4" x="338.84" y="63.65" width="6.19" height="53.33" rx="2.88" transform="translate(683.87 180.64) rotate(-180)"/></g></g></svg>