<svg xmlns="http://www.w3.org/2000/svg" xmlns:xlink="http://www.w3.org/1999/xlink" viewBox="0 0 176.88 45.13"><defs><style>.cls-1{font-size:30px;fill:#fff;font-family:Eina02-Light, "Eina 02";font-weight:300;letter-spacing:0.2em;}.cls-2{fill:url(#linear-gradient);}.cls-3{fill:url(#linear-gradient-2);}</style><linearGradient id="linear-gradient" x1="1.55" y1="20.2" x2="27.09" y2="20.2" gradientUnits="userSpaceOnUse"><stop offset="0.45" stop-color="#e6007e"/><stop offset="0.55" stop-color="#db037d"/><stop offset="0.72" stop-color="#bd0b7b"/><stop offset="0.95" stop-color="#8e1778"/><stop offset="1" stop-color="#831a77"/></linearGradient><linearGradient id="linear-gradient-2" x1="0.49" y1="22.57" x2="31.97" y2="22.57" gradientUnits="userSpaceOnUse"><stop offset="0.19" stop-color="#00accc"/><stop offset="0.31" stop-color="#02a7c8"/><stop offset="0.45" stop-color="#0697bd"/><stop offset="0.61" stop-color="#0e7eab"/><stop offset="0.78" stop-color="#195b92"/><stop offset="0.92" stop-color="#233979"/></linearGradient></defs><title>Asset 3</title><g id="Layer_2" data-name="Layer 2"><g id="Layer_1-2" data-name="Layer 1"><text class="cls-1" transform="translate(38.28 29.23)">shapes</text><path class="cls-2" d="M4.1,37.68c6.22,3.6,15,4.13,20.16-1.57,4.14-4.57,4.51-11.75.28-16.38a14.63,14.63,0,0,0-9.94-4.44l.54.94L23.65,1A.63.63,0,0,0,23.11,0H1.82a.63.63,0,0,0-.6.46A4.17,4.17,0,0,0,4.76,5.72c1.49.15,3,0,4.54,0a.63.63,0,0,0,0-1.25H5.7c-2,0-3.93-1.44-3.28-3.69l-.6.46H23.11L22.57.32,14.06,15.6a.63.63,0,0,0,.54.94,13,13,0,0,1,9.84,5,10.7,10.7,0,0,1,1.15,10,11.65,11.65,0,0,1-7.57,7c-4.44,1.36-9.34.29-13.28-2a.63.63,0,0,0-.64,1.08Z"/><path class="cls-3" d="M9.3,5.74h6.07l-.54-.94-3.47,6.44L9.34,15a4.49,4.49,0,0,0-.77,3.08c.44,2.12,2.34,2.85,4.28,2.71,2.34-.17,4.8.18,6.54,1.9a7.1,7.1,0,0,1,2,5.16c-.09,2.89-2.81,5.49-5.34,6.49-3,1.19-5.69.4-8.46-.93a5.34,5.34,0,0,0-6,.89A5.28,5.28,0,0,0,.2,39.46C.89,41.82,3,42.87,5.09,43.69c8.23,3.17,18.41,1.1,23.91-6a16.42,16.42,0,0,0,2.94-14.14c-1.32-5-5.13-8.54-9.81-10.4l.38.91L29.1,1C29.46.23,28.39-.4,28,.32L21.43,13.39a.63.63,0,0,0,.37.92,14.47,14.47,0,0,1,8.84,9.22,15,15,0,0,1-2.05,12.56c-4.9,7.26-14.76,9.42-22.74,6.55-2.39-.86-5-2.27-4.56-5.26A4,4,0,0,1,7,34.46c2.27,1,4.31,1.93,6.88,1.66a10.24,10.24,0,0,0,5.51-2.36c3.11-2.6,4.22-6.67,2.2-10.29a7.48,7.48,0,0,0-3.62-3.25,9.33,9.33,0,0,0-2.65-.69c-1.1-.12-2.17.09-3.27,0a2.23,2.23,0,0,1-2-3.23c.1-.22.23-.43.34-.64l2-3.63,3.59-6.65a.63.63,0,0,0-.54-.94H9.3a.63.63,0,0,0,0,1.25Z"/></g></g></svg>